<svg width="60" height="60" viewBox="0 0 60 60" fill="none" xmlns="http://www.w3.org/2000/svg">
<g clip-path="url(#clip0_1246_99)">
<path d="M49.9512 44.6034C47.4753 44.6034 45.4609 42.5904 45.4609 40.1164C45.4609 37.6423 47.4753 35.6294 49.9512 35.6294C52.4253 35.6294 54.4382 37.6423 54.4382 40.1164C54.4382 42.5904 52.4253 44.6034 49.9512 44.6034ZM49.9512 37.9731C48.7675 37.9731 47.8047 38.9346 47.8047 40.1164C47.8047 41.2982 48.7676 42.2596 49.9512 42.2596C51.133 42.2596 52.0945 41.2982 52.0945 40.1164C52.0945 38.9346 51.133 37.9731 49.9512 37.9731Z" fill="#B13126"/>
<path d="M21.2215 20.0496V11.7843H40.8705C44.5545 11.7843 47.5514 14.7798 47.5514 18.4617C47.5514 22.1456 44.5545 25.1426 40.8705 25.1426H32.7954C32.1483 25.1426 31.6235 25.6673 31.6235 26.3145C31.6235 26.9616 32.1483 27.4863 32.7954 27.4863H40.8705C45.8467 27.4863 49.8952 23.4379 49.8952 18.4617C49.8952 13.4875 45.8467 9.44051 40.8705 9.44051H21.2215V1.17188C21.2215 0.524766 20.6967 0 20.0496 0H1.17187C0.524766 0 0 0.524766 0 1.17188V20.0496C0 20.6967 0.524766 21.2215 1.17187 21.2215H20.0496C20.6967 21.2215 21.2215 20.6967 21.2215 20.0496ZM8.41266 2.34375H12.8088V6.78281L11.2273 5.80805C10.8505 5.5759 10.375 5.57566 9.99797 5.80781L8.41277 6.78387L8.41266 2.34375ZM18.8777 18.8777H2.34375V2.34375H6.06891V8.88176C6.06891 9.30633 6.29859 9.69773 6.66926 9.90481C7.04004 10.1119 7.49391 10.1024 7.85519 9.87949L10.6119 8.18191L13.3657 9.87926C13.5539 9.99527 13.7672 10.0535 13.9806 10.0535C14.1772 10.0535 14.3741 10.0041 14.5519 9.90481C14.9227 9.69773 15.1525 9.30633 15.1525 8.88164V2.34375H18.8776L18.8777 18.8777Z" fill="#B13126"/>
<path d="M55.1623 50.8273C57.5599 47.6768 59.7765 44.6567 59.7304 40.1101C59.7272 34.719 55.3417 30.3346 49.9518 30.3346C44.56 30.3346 40.173 34.7196 40.1698 40.1107C40.1239 44.6568 42.3407 47.6776 44.7401 50.8273C42.3761 51.488 40.7538 52.5804 40.1559 53.9094H10.9373C8.93859 53.9094 7.3125 52.285 7.3125 50.2881C7.3125 48.2893 8.93859 46.6632 10.9373 46.6632H26.8321C30.1232 46.6632 32.8007 43.9873 32.8007 40.6981C32.8007 37.407 30.1232 34.7295 26.8321 34.7295H11.977C9.98016 34.7295 8.35559 33.1049 8.35559 31.108C8.35559 29.1111 9.98016 27.4866 11.977 27.4866H22.2714C22.9185 27.4866 23.4432 26.9618 23.4432 26.3147C23.4432 25.6676 22.9185 25.1428 22.2714 25.1428H11.977C8.68781 25.1428 6.01184 27.8188 6.01184 31.108C6.01184 34.3972 8.68781 37.0732 11.977 37.0732H26.8321C28.8308 37.0732 30.4569 38.6993 30.4569 40.6981C30.4569 42.6949 28.8308 44.3195 26.8321 44.3195H10.9373C7.64625 44.3195 4.96875 46.997 4.96875 50.2881C4.96875 53.5772 7.64625 56.2532 10.9373 56.2532H40.1544C40.607 57.2672 41.6558 58.1515 43.2179 58.8106C45.036 59.5775 47.4274 60 49.9518 60C52.4747 60 54.8652 59.5775 56.6828 58.8104C58.8214 57.9076 59.9994 56.5833 59.9994 55.0811C59.9994 53.2283 58.1892 51.6736 55.1623 50.8273ZM42.5134 40.1289C42.5135 40.1248 42.5135 40.1207 42.5135 40.1166C42.5135 36.0151 45.8503 32.6783 49.9518 32.6783C54.0513 32.6783 57.3866 36.0151 57.3866 40.1166C57.3866 40.1207 57.3866 40.1248 57.3867 40.1289C57.4275 43.9854 55.4319 46.6054 53.1214 49.6388C52.8804 49.9552 50.5307 52.7564 50.5307 52.7564C50.3281 52.9904 50.1176 53.1268 49.9516 53.1319C49.7227 53.1252 49.4892 52.8945 49.3712 52.7583C49.3712 52.7583 47.0257 49.9594 46.7859 49.6451C44.4714 46.6095 42.4726 43.9881 42.5134 40.1289ZM49.9518 57.6563C44.9648 57.6563 42.2445 55.955 42.2445 55.0811C42.2445 54.4853 43.5557 53.413 46.3553 52.849L47.5972 54.29C48.4392 55.2628 49.3381 55.4716 49.944 55.4756H49.9515C49.9515 55.4756 49.9567 55.4756 49.9591 55.4756C50.5635 55.4716 51.4606 55.2628 52.3035 54.289L53.5468 52.8489C56.3449 53.413 57.6554 54.4854 57.6554 55.0811C57.6557 55.955 54.9365 57.6563 49.9518 57.6563Z" fill="#B13126"/>
<path d="M26.3594 26.3145C26.3594 26.9616 26.8841 27.4863 27.5313 27.4863H27.5345C28.1816 27.4863 28.7048 26.9616 28.7048 26.3145C28.7048 25.6673 28.1784 25.1426 27.5311 25.1426C26.8839 25.1426 26.3594 25.6672 26.3594 26.3145Z" fill="#B13126"/>
</g>
<defs>
<clipPath id="clip0_1246_99">
<rect width="60" height="60" fill="white"/>
</clipPath>
</defs>
</svg>
