<svg width="30" height="30" viewBox="0 0 30 30" fill="none" xmlns="http://www.w3.org/2000/svg">
<g id="Facebook">
<g id="Group">
<path id="Vector" d="M22.4994 0.006242L18.609 0C14.2384 0 11.4139 2.89785 11.4139 7.38304V10.7871H7.50234C7.16434 10.7871 6.89062 11.0611 6.89062 11.3991V16.3313C6.89062 16.6693 7.16465 16.943 7.50234 16.943H11.4139V29.3883C11.4139 29.7263 11.6876 30 12.0256 30H17.1291C17.4671 30 17.7408 29.726 17.7408 29.3883V16.943H22.3143C22.6523 16.943 22.926 16.6693 22.926 16.3313L22.9279 11.3991C22.9279 11.2369 22.8633 11.0814 22.7487 10.9666C22.6342 10.8517 22.4782 10.7871 22.3159 10.7871H17.7408V7.90144C17.7408 6.51447 18.0713 5.81037 19.878 5.81037L22.4988 5.80943C22.8364 5.80943 23.1102 5.53541 23.1102 5.19772V0.617958C23.1102 0.280578 22.8368 0.0068662 22.4994 0.006242Z" fill="white"/>
</g>
</g>
</svg>
