<svg width="19" height="21" viewBox="0 0 19 21" fill="none" xmlns="http://www.w3.org/2000/svg">
<path d="M18.5 13.4846C18.4978 12.8843 18.3155 12.2985 17.9768 11.8029C17.6381 11.3073 17.1585 10.9247 16.6 10.7046L18.47 3.70463C18.5091 3.55555 18.5131 3.39946 18.4819 3.24854C18.4507 3.09763 18.385 2.95597 18.29 2.83463C18.1929 2.72093 18.0715 2.63047 17.9348 2.5699C17.798 2.50933 17.6495 2.48019 17.5 2.48463H3.8L3.47 1.22463C3.41263 1.01154 3.28638 0.823413 3.11093 0.689564C2.93547 0.555714 2.72068 0.48366 2.5 0.484629H0.5V2.48463H1.73L4.21 11.7446C4.2686 11.9628 4.39934 12.1547 4.58092 12.2891C4.76251 12.4234 4.98424 12.4924 5.21 12.4846H15.5C15.7652 12.4846 16.0196 12.59 16.2071 12.7775C16.3946 12.9651 16.5 13.2194 16.5 13.4846C16.5 13.7498 16.3946 14.0042 16.2071 14.1917C16.0196 14.3793 15.7652 14.4846 15.5 14.4846H2.5C2.23478 14.4846 1.98043 14.59 1.79289 14.7775C1.60536 14.9651 1.5 15.2194 1.5 15.4846C1.5 15.7498 1.60536 16.0042 1.79289 16.1917C1.98043 16.3793 2.23478 16.4846 2.5 16.4846H3.68C3.51554 16.9378 3.46269 17.4238 3.52593 17.9017C3.58917 18.3796 3.76665 18.8352 4.04332 19.23C4.31999 19.6247 4.68772 19.947 5.11535 20.1695C5.54299 20.392 6.01795 20.5082 6.5 20.5082C6.98205 20.5082 7.45701 20.392 7.88465 20.1695C8.31228 19.947 8.68001 19.6247 8.95668 19.23C9.23335 18.8352 9.41083 18.3796 9.47407 17.9017C9.53731 17.4238 9.48446 16.9378 9.32 16.4846H11.68C11.5303 16.8972 11.4729 17.3377 11.512 17.7749C11.551 18.212 11.6856 18.6353 11.906 19.0149C12.1265 19.3944 12.4276 19.7209 12.788 19.9714C13.1485 20.2219 13.5595 20.3902 13.9921 20.4646C14.4247 20.5389 14.8683 20.5174 15.2917 20.4016C15.715 20.2858 16.1078 20.0785 16.4424 19.7943C16.7769 19.5101 17.045 19.156 17.2277 18.7569C17.4105 18.3579 17.5034 17.9235 17.5 17.4846C17.4981 16.968 17.3602 16.461 17.1 16.0146C17.5276 15.745 17.8802 15.3717 18.1249 14.9294C18.3697 14.4871 18.4987 13.9901 18.5 13.4846ZM14.59 10.4846H6L4.34 4.48463H16.2L14.59 10.4846ZM6.5 18.4846C6.30222 18.4846 6.10888 18.426 5.94443 18.3161C5.77998 18.2062 5.65181 18.05 5.57612 17.8673C5.50043 17.6846 5.48063 17.4835 5.51921 17.2895C5.5578 17.0956 5.65304 16.9174 5.79289 16.7775C5.93275 16.6377 6.11093 16.5424 6.30491 16.5038C6.49889 16.4653 6.69996 16.4851 6.88268 16.5607C7.06541 16.6364 7.22159 16.7646 7.33147 16.9291C7.44135 17.0935 7.5 17.2868 7.5 17.4846C7.5 17.7498 7.39464 18.0042 7.20711 18.1917C7.01957 18.3793 6.76522 18.4846 6.5 18.4846ZM14.5 18.4846C14.3022 18.4846 14.1089 18.426 13.9444 18.3161C13.78 18.2062 13.6518 18.05 13.5761 17.8673C13.5004 17.6846 13.4806 17.4835 13.5192 17.2895C13.5578 17.0956 13.653 16.9174 13.7929 16.7775C13.9327 16.6377 14.1109 16.5424 14.3049 16.5038C14.4989 16.4653 14.7 16.4851 14.8827 16.5607C15.0654 16.6364 15.2216 16.7646 15.3315 16.9291C15.4414 17.0935 15.5 17.2868 15.5 17.4846C15.5 17.7498 15.3946 18.0042 15.2071 18.1917C15.0196 18.3793 14.7652 18.4846 14.5 18.4846Z" fill="white"/>
</svg>
