<svg width="30" height="30" viewBox="0 0 30 30" fill="none" xmlns="http://www.w3.org/2000/svg">
<path d="M15.002 9.49805C11.966 9.49805 9.5 11.964 9.5 15C9.5 18.036 11.966 20.508 15.002 20.508C18.038 20.508 20.51 18.036 20.51 15C20.51 11.964 18.038 9.49805 15.002 9.49805Z" fill="white"/>
<path d="M23.304 0H6.696C3.006 0 0 3.006 0 6.696V23.304C0 27 3.006 30 6.696 30H23.304C27 30 30 27 30 23.304V6.696C30 3.006 27 0 23.304 0ZM15 24.72C9.642 24.72 5.28 20.358 5.28 15C5.28 9.642 9.642 5.286 15 5.286C20.358 5.286 24.72 9.642 24.72 15C24.72 20.358 20.358 24.72 15 24.72ZM24.924 7.05C23.79 7.05 22.866 6.132 22.866 4.998C22.866 3.864 23.79 2.94 24.924 2.94C26.058 2.94 26.982 3.864 26.982 4.998C26.982 6.132 26.058 7.05 24.924 7.05Z" fill="white"/>
</svg>
