<svg width="28" height="30" viewBox="0 0 28 30" fill="none" xmlns="http://www.w3.org/2000/svg">
<path d="M14 16.8975C4.97202 16.8975 0 21.1617 0 28.9048C0 29.5095 0.490905 29.9997 1.0966 29.9997H26.9034C27.5091 29.9997 28 29.5095 28 28.9048C28.0001 21.1621 23.028 16.8975 14 16.8975ZM2.2331 27.8099C2.66444 22.0205 6.61768 19.0873 14 19.0873C21.3824 19.0873 25.3357 22.0205 25.7674 27.8099H2.2331Z" fill="#B13126"/>
<path d="M13.9851 0C9.83806 0 6.71094 3.18504 6.71094 7.40842C6.71094 11.7555 9.97409 15.2916 13.9851 15.2916C17.9961 15.2916 21.2592 11.7555 21.2592 7.40877C21.2592 3.18504 18.1321 0 13.9851 0ZM13.9851 13.1022C11.1832 13.1022 8.90414 10.5482 8.90414 7.40877C8.90414 4.38469 11.0411 2.18977 13.9851 2.18977C16.882 2.18977 19.066 4.4332 19.066 7.40877C19.066 10.5482 16.7869 13.1022 13.9851 13.1022Z" fill="#B13126"/>
</svg>
