<svg width="260" height="60" viewBox="0 0 260 60" fill="none" xmlns="http://www.w3.org/2000/svg">
<g clip-path="url(#clip0_1246_424)">
<path fill-rule="evenodd" clip-rule="evenodd" d="M4.82456 50.9342L6.11934 51.1258C4.0059 41.9185 2.84331 32.8882 3.53524 23.3576C3.91821 18.0774 4.95377 16.4765 9.6229 15.9778L110.039 3.06884C116.797 2.1274 124.06 3.65875 129.933 8.46859L186.741 5.97649C190.083 5.74807 193.115 4.57498 195.235 3.19647L194.256 3.06844C192.832 3.74387 191.354 4.27861 189.804 4.43488C181.863 5.23513 172.103 5.07213 163.942 5.3693L130.786 6.29617C124.052 0.0133649 116.879 -0.47394 109.408 0.257067L45.4001 8.56487L7.16185 13.5045C4.37158 13.8631 1.94411 15.3162 0.85114 18.3889C-1.76374 25.7398 2.24454 43.7263 4.82456 50.9342Z" fill="white"/>
<path fill-rule="evenodd" clip-rule="evenodd" d="M200.079 2.25476L199.984 3.83626C201.412 3.91977 201.891 4.13584 201.94 5.01247C201.982 5.7488 201.517 6.34253 200.679 6.36052L200.805 8.62911H201.626C203.261 8.72428 203.185 11.0207 202.069 11.1909L201.497 11.2216L201.599 13.4022L202.668 13.4546C203.301 13.5522 203.565 14.0328 203.666 14.6007C203.764 15.1478 203.466 15.9736 202.921 16.0106L202.432 16.0585L202.573 18.3603L203.631 18.3752C204.854 18.372 204.916 20.6372 203.821 20.8284L203.236 20.932L203.505 23.3927C204.915 23.4709 205.329 23.4786 205.482 24.2542C205.626 24.9809 205.187 25.4919 204.779 25.6207C203.33 26.021 203.891 27.4335 205.098 27.5257C206.523 27.6353 207.386 27.3142 208.676 26.591C209.31 26.2359 210.375 25.7444 210.846 25.2129C211.352 24.642 211.383 23.9401 211.13 22.5297C210.301 19.1252 208.492 5.17557 207.185 3.1962C206.181 2.10763 205.072 1.85277 203.505 1.76002L201.238 1.75579C200.736 1.73178 200.079 1.71972 200.079 2.25486L200.079 2.25476Z" fill="#B13126"/>
<path fill-rule="evenodd" clip-rule="evenodd" d="M35.6047 51.0366C35.6047 50.035 35.2332 49.158 34.4905 48.4066C33.7859 47.636 32.9289 47.2509 31.92 47.2509C31.5011 47.2509 31.0254 47.3372 30.4923 47.5109C29.8067 47.7418 29.4638 48.0116 29.4638 48.3201C29.502 48.3585 29.5208 48.3777 29.5208 48.3777C29.9969 48.7056 30.2537 48.8787 30.2919 48.8982C30.8447 49.3991 31.1205 50.0154 31.1205 50.7474C31.1205 51.2875 30.9542 51.8363 30.6208 52.3951C30.2876 52.9534 29.883 53.3485 29.4067 53.5797C29.0072 53.7916 28.2262 53.9072 27.0648 53.9266C26.6461 53.9461 26.2273 53.9556 25.808 53.9556H24.5803C26.9791 49.9478 29.0737 46.4801 30.8633 43.5515C32.6531 40.6234 34.1765 38.1765 35.4333 36.211H20.4958C20.3438 37.6563 20.2246 38.8891 20.1394 39.9101C20.053 40.9315 19.9915 41.7497 19.9535 42.3665C20.9435 41.1528 22.1147 40.1123 23.4661 39.2457C25.0469 38.2243 26.5034 37.714 27.8364 37.714C27.8739 37.714 27.9312 37.6991 28.0074 37.6705C28.0835 37.6419 28.1409 37.627 28.1791 37.627C28.2171 37.627 28.2553 37.6465 28.2933 37.6851C24.8851 43.2531 22.2906 47.4964 20.5106 50.415C18.73 53.3343 17.7546 54.9484 17.583 55.2563L17.5547 55.2849H30.007C33.7392 55.2849 35.6051 53.8685 35.6051 51.0367L35.6047 51.0366ZM63.6961 54.0136L63.5536 53.8979C63.2296 53.8979 62.9154 53.6853 62.611 53.262C62.4775 53.069 62.3632 52.8813 62.2679 52.6984C62.1727 52.5156 62.1064 52.3273 62.0684 52.1343C61.7066 50.5359 61.1163 49.1195 60.2975 47.8867C59.3074 46.3643 58.1464 45.4593 56.8135 45.1697C56.4326 45.0926 56.0945 45.0255 55.7993 44.9678C55.5043 44.9097 55.2523 44.8617 55.0427 44.8235V44.7655C55.5945 44.6689 56.1519 44.5632 56.7133 44.4475C57.2749 44.332 57.832 44.2259 58.3841 44.1297C59.8502 43.7828 60.9448 43.3393 61.6686 42.7999C62.6587 42.087 63.1536 41.124 63.1536 39.91C63.1536 38.9085 62.6969 38.0127 61.7829 37.2223C60.9449 36.5094 59.9933 36.1529 58.9266 36.1529H45.1611C45.7133 36.8082 45.9894 37.6368 45.9894 38.6384V52.3662C45.9894 52.9827 45.8366 53.6956 45.5319 54.5044C45.4745 54.6395 45.418 54.7696 45.361 54.8944C45.3036 55.0203 45.2558 55.1402 45.2177 55.2562H52.0435C51.5676 54.5235 51.33 53.6666 51.33 52.6838V46.6726C51.7486 46.3643 52.1295 46.2108 52.472 46.2108C53.2147 46.2108 53.8382 46.5571 54.3432 47.2509C54.8475 47.9448 55.2525 49.139 55.5566 50.8344C55.8616 52.5877 56.1944 53.7629 56.5565 54.3598C57.2229 55.4388 58.3176 55.9784 59.841 55.9784C60.5644 55.9784 61.3067 55.8147 62.0687 55.4872C62.9256 55.1212 63.468 54.63 63.6965 54.0137L63.6961 54.0136ZM57.2128 39.621C57.2128 40.4881 56.6414 41.3644 55.4993 42.251C55.3276 42.3858 55.0093 42.6025 54.5427 42.9014C54.0758 43.1999 53.4625 43.5708 52.7006 44.0139C52.5479 44.1102 52.4102 44.1967 52.2861 44.2739C52.1623 44.351 52.0624 44.4182 51.9866 44.4762C51.8343 44.5533 51.7007 44.6163 51.5865 44.6639C51.4722 44.7124 51.3774 44.7553 51.3013 44.7942C51.282 44.6983 51.2677 44.5919 51.2583 44.4762C51.2488 44.3609 51.2439 44.2257 51.2439 44.0716L51.2722 37.5692H54.5566C55.2612 37.5692 55.8612 37.7333 56.3562 38.0608C56.9273 38.4455 57.2127 38.9664 57.2127 39.621H57.2128ZM85.3903 32.2809C85.3903 31.9722 85.2662 31.6645 85.0191 31.3557C84.7713 31.0477 84.505 30.8936 84.2191 30.8936C83.8385 30.8936 83.5576 30.9604 83.3768 31.0956C83.1962 31.2306 83.0102 31.3852 82.8198 31.558L83.0196 31.4138C82.9434 31.5489 82.5769 31.8859 81.9202 32.4252C81.2632 32.9646 80.3063 33.7061 79.0494 34.6506L79.2784 35.0552L84.5619 33.3786C85.1145 33.2053 85.3902 32.8397 85.3902 32.2809H85.3903ZM91.3591 45.7768C91.3591 42.8487 90.5598 40.4301 88.9604 38.5226C87.2656 36.5001 84.9999 35.4884 82.1632 35.4884C79.383 35.4884 77.1553 36.4421 75.4799 38.3498C73.8045 40.218 72.9664 42.5785 72.9664 45.43C72.9664 48.4355 73.7471 50.8729 75.3083 52.7419C76.9838 54.7644 79.269 55.7757 82.1632 55.7757C84.8287 55.7757 87.0469 54.7742 88.8177 52.7705C90.5121 50.8244 91.3592 48.4932 91.3592 45.7769L91.3591 45.7768ZM85.9044 45.0833V45.6612C85.9044 47.4337 85.8754 48.763 85.8187 49.6491C85.7045 51.2872 85.4664 52.4238 85.1044 53.0596C84.5714 54.0616 83.61 54.5624 82.2201 54.5624C80.0875 54.5624 78.8786 52.6739 78.5928 48.898C78.5548 48.3389 78.5265 47.5878 78.5072 46.6436C78.4882 45.6997 78.4785 44.5439 78.4785 43.1755C78.4785 41.3839 78.6407 40.0161 78.964 39.0721C79.4974 37.5692 80.4968 36.818 81.9633 36.818C83.7908 36.818 84.9811 37.8198 85.533 39.8236C85.7811 40.7095 85.9045 42.4627 85.9045 45.0833H85.9044ZM119.023 45.7478C119.023 43.3006 118.28 41.1238 116.795 39.2163C115.196 37.1745 113.215 36.1527 110.854 36.1527H100.401C100.953 36.9816 101.229 37.9351 101.229 39.0141V52.3948C101.229 52.8383 100.953 53.7821 100.401 55.227C100.497 55.2462 100.577 55.2606 100.644 55.2702C100.711 55.2801 100.773 55.2847 100.83 55.2847H102.972C103.828 55.2847 104.828 55.2748 105.971 55.2561C107.113 55.2366 108.112 55.2271 108.969 55.2271H111.111C113.225 55.2271 115.1 54.1672 116.737 52.0478C118.261 50.0442 119.023 47.9446 119.023 45.7478H119.023ZM113.053 45.9497C113.053 47.8187 112.72 49.5048 112.054 51.0078C111.197 52.9149 109.95 53.8684 108.312 53.8684H107.941C107.789 53.8684 107.618 53.8784 107.427 53.8978C107.217 53.9173 107.036 53.9264 106.885 53.9264H106.513L106.485 37.4825H108.141C111.416 37.4825 113.053 40.3049 113.053 45.9497H113.053ZM145.258 47.9153C144.592 48.7823 144.001 49.5143 143.487 50.112C142.973 50.7089 142.545 51.1716 142.202 51.4989C140.831 52.8088 139.489 53.5313 138.175 53.6664C138.08 53.6852 137.928 53.6954 137.718 53.6954H136.861H135.576C135.138 53.6954 134.671 53.6851 134.176 53.6664L134.205 46.4412C134.548 46.2484 134.905 46.0561 135.276 45.8633C135.647 45.6702 136.004 45.5747 136.347 45.5747C136.499 45.5747 136.604 45.584 136.661 45.6033C137.747 45.796 138.551 45.9404 139.075 46.0365C139.598 46.1335 139.86 46.1811 139.86 46.1811C140.792 46.1811 141.65 45.8346 142.43 45.1407C143.135 44.5048 143.487 43.6862 143.487 42.6839C142.764 43.2427 142.145 43.5221 141.63 43.5221C141.174 43.5221 140.46 43.4353 139.489 43.2621C138.518 43.0887 137.794 43.0017 137.318 43.0017C136.728 43.0017 136.143 43.209 135.561 43.6231C134.98 44.0375 134.528 44.5333 134.205 45.1115V37.4821H136.49H137.432C139.546 37.5591 141.907 38.9464 144.515 41.6433V41.6147C144.515 41.538 144.5 41.3308 144.472 40.9937C144.444 40.6559 144.391 40.1796 144.315 39.5632C144.258 39.0618 144.196 38.5221 144.13 37.9442C144.062 37.3663 143.991 36.769 143.915 36.1523H128.121C128.826 36.634 129.178 37.4432 129.178 38.5801V52.2214C129.178 52.1825 129.173 52.2161 129.164 52.3221C129.154 52.4278 129.14 52.5962 129.121 52.8275C129.045 53.8678 128.683 54.6675 128.036 55.2265C128.302 55.2457 128.764 55.2601 129.421 55.2697C130.078 55.2796 130.949 55.2842 132.034 55.2842L144.344 55.2265L145.257 47.9147L145.258 47.9153ZM170.836 51.0078C170.836 49.9476 170.465 48.8111 169.722 47.597C168.979 46.3836 168.608 45.5841 168.608 45.199C168.608 44.7747 168.942 44.3994 169.608 44.0715H169.636C169.522 43.8788 169.308 43.6955 168.994 43.5224C168.679 43.3494 168.418 43.2624 168.208 43.2624C167.275 43.2624 166.457 43.6093 165.752 44.3031C165.067 44.9967 164.724 45.8153 164.724 46.7592C164.724 47.2794 164.924 48.0982 165.324 49.2163C165.724 50.3526 165.924 51.0846 165.924 51.412C165.924 52.6647 165.343 53.4735 164.182 53.8398C163.667 54.0328 162.582 54.1383 160.926 54.1577V43.6093L162.696 41.8178L162.667 39.9678L160.926 41.7884V40.3724C160.907 40.0449 160.897 39.7655 160.897 39.5343V38.9564C160.897 37.7812 161.173 36.8565 161.725 36.1821H155.099C155.595 37.5111 155.842 38.5133 155.842 39.1877V46.9907L154.856 47.9872C154.561 48.2861 154.281 48.5608 154.014 48.8109C153.995 48.888 153.985 49.0322 153.985 49.2447V49.7935C153.985 50.0054 153.995 50.2367 154.014 50.4867L155.842 48.6665V51.8458C155.842 51.9228 155.851 52.0378 155.871 52.1923C155.89 52.3464 155.899 52.4621 155.899 52.5392C155.899 53.6567 155.613 54.5719 155.042 55.2845H165.924C167.351 55.2845 168.504 54.9479 169.379 54.2731C170.35 53.5216 170.836 52.4327 170.836 51.0075L170.836 51.0078ZM198.385 53.4639C198.385 53.4063 198.337 53.3776 198.242 53.3776C198.185 53.3776 198.137 53.3869 198.099 53.4063H197.956C197.366 53.4063 196.861 52.9337 196.443 51.9902C196.309 51.6242 196.181 51.2578 196.057 50.8921C195.934 50.5257 195.805 50.1597 195.671 49.7936C195.138 48.4643 194.748 47.5781 194.501 47.1349C193.987 46.1912 193.349 45.4877 192.587 45.0252C191.331 44.4858 190.36 44.11 189.674 43.8977C190.302 43.7058 190.988 43.4069 191.73 43.0019C192.587 42.5398 193.178 42.1061 193.501 41.7016C194.225 40.7963 194.729 40.0735 195.015 39.5341C195.262 39.1105 195.495 38.749 195.714 38.4501C195.934 38.1513 196.148 37.9158 196.357 37.7423C196.624 37.511 196.923 37.3712 197.257 37.3238C197.59 37.275 197.814 37.1926 197.927 37.0777C197.414 36.2106 196.471 35.777 195.101 35.777C194.301 35.777 193.634 35.883 193.101 36.0948C192.358 36.4032 191.664 37.0776 191.016 38.1181C190.768 38.5612 190.53 39.0043 190.302 39.4475C190.074 39.8902 189.836 40.3333 189.588 40.7771C189.551 40.8345 189.465 40.9356 189.331 41.0801C189.198 41.2247 189.007 41.4221 188.759 41.6728C188.322 42.1545 188.018 42.4431 187.846 42.5396C187.313 42.9059 186.761 43.0887 186.19 43.0887H186.046V39.0138C186.046 38.0123 186.399 37.0677 187.103 36.1819L179.821 36.1525C180.354 37.2121 180.62 38.2143 180.62 39.1581V52.2786C180.62 52.7029 180.525 53.2323 180.335 53.8681C180.125 54.5426 179.925 55.0051 179.735 55.2558H187.046C186.894 55.1207 186.761 54.9284 186.646 54.6775C186.532 54.4268 186.427 54.1669 186.332 53.8974C186.237 53.6272 186.166 53.3479 186.118 53.0592C186.071 52.77 186.046 52.5101 186.046 52.2784V44.6489C186.142 44.6297 186.247 44.6157 186.361 44.6054C186.475 44.5962 186.598 44.5913 186.732 44.5913C186.98 44.5913 187.189 44.6202 187.36 44.6783C188.179 44.9283 188.874 46.0843 189.445 48.146L190.388 52.4813C190.692 53.695 191.164 54.5618 191.801 55.0816C192.439 55.6018 193.377 55.8618 194.615 55.8618C195.414 55.8618 196.205 55.6595 196.985 55.2556C197.918 54.7736 198.385 54.1767 198.385 53.4634L198.385 53.4639ZM225.791 45.7768C225.791 42.8487 224.992 40.4301 223.392 38.5226C221.697 36.5001 219.432 35.4884 216.595 35.4884C213.814 35.4884 211.587 36.4421 209.912 38.3498C208.236 40.218 207.398 42.5785 207.398 45.43C207.398 48.4355 208.179 50.8729 209.74 52.7419C211.415 54.7644 213.701 55.7757 216.595 55.7757C219.26 55.7757 221.478 54.7742 223.249 52.7705C224.943 50.8244 225.791 48.4932 225.791 45.7769L225.791 45.7768ZM220.336 45.0833V45.6612C220.336 47.4337 220.307 48.763 220.25 49.6491C220.136 51.2872 219.898 52.4238 219.536 53.0596C219.003 54.0616 218.041 54.5624 216.652 54.5624C214.519 54.5624 213.31 52.6739 213.024 48.898C212.986 48.3389 212.958 47.5878 212.939 46.6436C212.92 45.6997 212.91 44.5439 212.91 43.1755C212.91 41.3839 213.072 40.0161 213.396 39.0721C213.929 37.5692 214.929 36.818 216.395 36.818C218.222 36.818 219.413 37.8198 219.965 39.8236C220.212 40.7095 220.336 42.4627 220.336 45.0833H220.336Z" fill="white"/>
<path fill-rule="evenodd" clip-rule="evenodd" d="M11.9201 59.6774L13.1891 59.9996C12.0016 50.6239 11.742 41.5215 13.3775 32.1093C14.2833 26.8949 15.4727 25.4079 20.168 25.3866L121.358 22.7595C128.175 22.5102 135.249 24.7732 140.614 30.1562C157.145 30.696 248.987 36.1038 257.391 31.7812L256.43 31.5549C246.318 35.1467 159.608 27.7529 141.679 27.1867C135.604 20.2504 128.514 19.9307 121.009 19.8975L56.5 21.6511L17.9649 22.6753C15.1533 22.7477 12.5937 23.9469 11.201 26.8928C7.86925 33.9405 10.0701 52.2435 11.9202 59.6774H11.9201Z" fill="white"/>
<path fill-rule="evenodd" clip-rule="evenodd" d="M239.812 33.8792C244.107 34.0511 255.81 33.5902 259.334 31.5957L260.001 52.8389L240.42 52.3848C232.793 52.3848 230.387 33.8792 239.812 33.8792H239.812Z" fill="#B13126"/>
<path fill-rule="evenodd" clip-rule="evenodd" d="M32.8561 32.2658C32.8561 31.9578 32.7324 31.6494 32.485 31.3411C32.2372 31.0331 31.9705 30.8789 31.685 30.8789C31.3044 30.8789 31.0235 30.9464 30.8427 31.0812C30.6617 31.216 30.476 31.3701 30.2855 31.5433L30.4855 31.3991C30.4093 31.5338 30.0427 31.8708 29.386 32.4106C28.7291 32.9502 27.7725 33.6918 26.5156 34.6355L26.7442 35.0405L32.0277 33.3639C32.5799 33.1906 32.856 32.8246 32.856 32.2658H32.8561Z" fill="white"/>
</g>
<defs>
<clipPath id="clip0_1246_424">
<rect width="260" height="60" fill="white"/>
</clipPath>
</defs>
</svg>
