<svg width="164" height="204" viewBox="0 0 164 204" fill="none" xmlns="http://www.w3.org/2000/svg">
<g opacity="0.2">
<path d="M47.4441 152L2.66685 102.734C2.22902 104.004 2 105.351 2 106.72V193.952C2 196.126 2.84872 198.099 4.22799 199.547" stroke="#605F5F" stroke-width="4" stroke-miterlimit="10" stroke-linecap="round" stroke-linejoin="round"/>
<path d="M159.679 199.643C161.113 198.187 162 196.175 162 193.952V106.72C162 105.351 161.771 104.004 161.333 102.734L116.555 152.001" stroke="#605F5F" stroke-width="4" stroke-miterlimit="10" stroke-linecap="round" stroke-linejoin="round"/>
<path d="M60.0124 26.9997H51.2344V14.4995H131.235V26.9997H73.8804" stroke="#605F5F" stroke-width="4" stroke-miterlimit="10" stroke-linecap="round" stroke-linejoin="round"/>
<path d="M51.2344 39.5005H131.235" stroke="#605F5F" stroke-width="4" stroke-miterlimit="10" stroke-linecap="round" stroke-linejoin="round"/>
<path d="M94.3118 52.0005H51.2344V89.5007H94.3118V52.0005Z" stroke="#605F5F" stroke-width="4" stroke-miterlimit="10" stroke-linecap="round" stroke-linejoin="round"/>
<path d="M118.93 58.2505H131.237" stroke="#605F5F" stroke-width="4" stroke-miterlimit="10" stroke-linecap="round" stroke-linejoin="round"/>
<path d="M106.609 70.75H131.225" stroke="#605F5F" stroke-width="4" stroke-miterlimit="10" stroke-linecap="round" stroke-linejoin="round"/>
<path d="M106.609 83.25H131.225" stroke="#605F5F" stroke-width="4" stroke-miterlimit="10" stroke-linecap="round" stroke-linejoin="round"/>
<path d="M63.5469 108.25H75.8545" stroke="#605F5F" stroke-width="4" stroke-miterlimit="10" stroke-linecap="round" stroke-linejoin="round"/>
<path d="M51.2344 120.75H75.85" stroke="#605F5F" stroke-width="4" stroke-miterlimit="10" stroke-linecap="round" stroke-linejoin="round"/>
<path d="M51.2344 133.25H64.489" stroke="#605F5F" stroke-width="4" stroke-miterlimit="10" stroke-linecap="round" stroke-linejoin="round"/>
<path d="M64.6631 133.051C69.1286 128.138 75.4124 125.344 81.9957 125.344C88.579 125.344 94.8632 128.138 99.3287 133.051L159.765 199.545C158.327 201.058 156.31 202 154.071 202H9.92035C7.68563 202 5.66487 201.058 4.22656 199.545L64.6631 133.051Z" stroke="#605F5F" stroke-width="4" stroke-miterlimit="10" stroke-linecap="round" stroke-linejoin="round"/>
<path d="M20.4609 112.275V122.313L38.9228 142.625V52.0005H30.3666C24.8959 52.0005 20.4609 56.5047 20.4609 62.0609V98.19" stroke="#605F5F" stroke-width="4" stroke-miterlimit="10" stroke-linecap="round" stroke-linejoin="round"/>
<path d="M143.538 51.7533V12.0604C143.538 6.50423 139.103 2 133.633 2H48.8276C43.3568 2 38.9219 6.50423 38.9219 12.0604V52" stroke="#605F5F" stroke-width="4" stroke-miterlimit="10" stroke-linecap="round" stroke-linejoin="round"/>
<path d="M143.531 122.312V65.8374" stroke="#605F5F" stroke-width="4" stroke-miterlimit="10" stroke-linecap="round" stroke-linejoin="round"/>
<path d="M99.342 133.051L105.204 139.5H127.928L131.242 135.854V102H88.1641V126.174C92.4136 127.341 96.2998 129.704 99.342 133.051Z" stroke="#605F5F" stroke-width="4" stroke-miterlimit="10" stroke-linecap="round" stroke-linejoin="round"/>
<path d="M161.326 102.734C160.794 101.189 159.953 99.7555 158.841 98.5318L143.531 81.6875" stroke="#605F5F" stroke-width="4" stroke-miterlimit="10" stroke-linecap="round" stroke-linejoin="round"/>
<path d="M20.4668 81.6875L5.15741 98.5318C4.0452 99.7555 3.2044 101.189 2.67188 102.734" stroke="#605F5F" stroke-width="4" stroke-miterlimit="10" stroke-linecap="round" stroke-linejoin="round"/>
</g>
</svg>
