<svg width="60" height="60" viewBox="0 0 60 60" fill="none" xmlns="http://www.w3.org/2000/svg">
<g clip-path="url(#clip0_1246_76)">
<path d="M10.8071 14.9601C11.2918 14.9601 11.6845 14.5674 11.6845 14.0827V5.95523C11.6845 3.63907 13.5689 1.75484 15.8849 1.75484H44C46.3162 1.75484 48.2004 3.63907 48.2004 5.95523V14.0827C48.2004 14.5674 48.5932 14.9601 49.0779 14.9601C49.5625 14.9601 49.9553 14.5674 49.9553 14.0827V5.95523C49.9554 2.67157 47.2838 0 44.0002 0H15.8849C12.6013 0 9.92969 2.67157 9.92969 5.95523V14.0827C9.92969 14.5674 10.3225 14.9601 10.8071 14.9601Z" fill="#B13126"/>
<path d="M49.078 49.9666C48.5933 49.9666 48.2006 50.3593 48.2006 50.844V54.0447C48.2006 56.3608 46.3163 58.2451 44.0002 58.2451H15.8849C13.5688 58.2451 11.6845 56.3608 11.6845 54.0447V50.844C11.6845 50.3593 11.2918 49.9666 10.8071 49.9666C10.3224 49.9666 9.92969 50.3593 9.92969 50.844V54.0447C9.92969 57.3283 12.6013 59.9999 15.8849 59.9999H44C47.2837 59.9999 49.9553 57.3283 49.9553 54.0447V50.844C49.9554 50.3593 49.5627 49.9666 49.078 49.9666Z" fill="#B13126"/>
<path d="M45.5649 10.7876C45.0802 10.7876 44.6875 11.1803 44.6875 11.665V14.0826C44.6875 14.5673 45.0802 14.96 45.5649 14.96C46.0496 14.96 46.4423 14.5673 46.4423 14.0826V11.665C46.4423 11.1803 46.0496 10.7876 45.5649 10.7876Z" fill="#B13126"/>
<path d="M46.4435 5.95531C46.4435 4.60689 45.3465 3.50977 43.9981 3.50977H39.506C38.9386 3.50977 38.4046 3.81183 38.112 4.29827L37.3696 5.53298C37.2258 5.77187 36.9634 5.92045 36.6846 5.92045H23.1964C22.9175 5.92045 22.6551 5.77187 22.5114 5.53286L21.7689 4.29816C21.4764 3.81183 20.9424 3.50977 20.375 3.50977H15.8829C14.5345 3.50977 13.4375 4.60689 13.4375 5.95531V14.0828C13.4375 14.5675 13.8302 14.9602 14.3149 14.9602C14.7996 14.9602 15.1923 14.5675 15.1923 14.0828V5.95531C15.1923 5.57439 15.5021 5.26461 15.8829 5.26461H20.3024L21.0074 6.43707C21.4666 7.20078 22.3054 7.67517 23.1964 7.67517H36.6845C37.5755 7.67517 38.4143 7.20078 38.8735 6.43719L39.5784 5.26461H43.9979C44.3787 5.26461 44.6885 5.57439 44.6885 5.95531V7.92588C44.6885 8.41057 45.0813 8.8033 45.566 8.8033C46.0506 8.8033 46.4434 8.41057 46.4434 7.92588L46.4435 5.95531Z" fill="#B13126"/>
<path d="M14.3149 49.9666C13.8302 49.9666 13.4375 50.3593 13.4375 50.844V54.0447C13.4375 55.3931 14.5345 56.4902 15.8829 56.4902H43.9981C45.3465 56.4902 46.4435 55.3931 46.4435 54.0447V50.844C46.4435 50.3593 46.0508 49.9666 45.5661 49.9666C45.0814 49.9666 44.6886 50.3593 44.6886 50.844V54.0447C44.6886 54.4256 44.3789 54.7354 43.9981 54.7354H15.8829C15.5021 54.7354 15.1923 54.4256 15.1923 54.0447V50.844C15.1923 50.3593 14.7996 49.9666 14.3149 49.9666Z" fill="#B13126"/>
<path d="M53.5756 16.7151H39.5493C39.0646 16.7151 38.6719 17.1078 38.6719 17.5925C38.6719 18.0772 39.0646 18.4699 39.5493 18.4699H53.5757C54.3931 18.4699 55.0582 19.135 55.0582 19.9524V44.9745C55.0582 45.7919 54.3931 46.457 53.5757 46.457H43.1321C42.6474 46.457 42.2547 46.8497 42.2547 47.3344C42.2547 47.8191 42.6474 48.2118 43.1321 48.2118H53.5757C55.3609 48.2118 56.8131 46.7596 56.8131 44.9745V19.9524C56.813 18.1673 55.3608 16.7151 53.5756 16.7151Z" fill="#B13126"/>
<path d="M40.2693 47.3344C40.2693 46.8497 39.8765 46.457 39.3919 46.457H6.42483C5.60743 46.457 4.94234 45.7919 4.94234 44.9745V19.9524C4.94234 19.135 5.60743 18.4699 6.42483 18.4699H19.7264C20.2111 18.4699 20.6038 18.0772 20.6038 17.5925C20.6038 17.1078 20.2111 16.7151 19.7264 16.7151H6.42483C4.63969 16.7151 3.1875 18.1673 3.1875 19.9524V44.9745C3.1875 46.7596 4.63969 48.2118 6.42483 48.2118H39.3919C39.8764 48.2118 40.2693 47.8189 40.2693 47.3344Z" fill="#B13126"/>
<path d="M9.24793 28.9823H15.5483C16.5896 28.9823 17.437 28.135 17.437 27.0936V23.391C17.437 22.3497 16.5897 21.5024 15.5483 21.5024H9.24793C8.20661 21.5024 7.35938 22.3496 7.35938 23.391V27.0936C7.35938 28.135 8.2065 28.9823 9.24793 28.9823ZM9.11422 23.391C9.11422 23.3173 9.17423 23.2573 9.24793 23.2573H15.5483C15.6221 23.2573 15.6821 23.3173 15.6821 23.391V27.0936C15.6821 27.1674 15.6221 27.2274 15.5483 27.2274H9.24793C9.17423 27.2274 9.11422 27.1674 9.11422 27.0936V23.391Z" fill="#B13126"/>
<path d="M51.7324 44.3284C52.6108 44.3284 53.3252 43.614 53.3252 42.7356V36.4707C53.3252 35.5924 52.6108 34.8779 51.7324 34.8779H41.9757C41.0974 34.8779 40.3828 35.5924 40.3828 36.4707V42.7356C40.3828 43.614 41.0974 44.3284 41.9757 44.3284H51.7324ZM51.5704 42.5736H48.5282V39.7634C48.5282 39.5307 48.4358 39.3076 48.2713 39.143L47.7315 38.6031V36.6328H51.5704V42.5736ZM42.1375 36.6328H45.9765V38.9665C45.9765 39.1992 46.069 39.4223 46.2335 39.5869L46.7732 40.1268V42.5736H42.1374V36.6328H42.1375Z" fill="#B13126"/>
<path d="M40.3596 13.4865C40.8443 13.4865 41.2371 13.0938 41.2371 12.6091C41.2371 12.1244 40.8443 11.7317 40.3596 11.7317H38.4299C37.7805 11.7317 37.1962 12.1178 36.9414 12.7152L36.4467 13.8756H23.1198C22.6535 13.8756 22.2204 14.1072 21.9614 14.4951C21.7024 14.8828 21.6546 15.3716 21.8332 15.8025L24.2876 21.7185C24.5042 22.2404 25.0092 22.5777 25.5743 22.5777H32.7365L31.7457 24.9015H24.0049C23.5202 24.9015 23.1275 25.2943 23.1275 25.779C23.1275 26.2636 23.5202 26.6564 24.0049 26.6564H31.836C32.4858 26.6564 33.07 26.2702 33.3245 25.673L34.8707 22.0464C34.872 22.0435 34.8733 22.0406 34.8745 22.0375L38.5203 13.4865H40.3596ZM25.816 20.8228L23.6617 15.6305H35.6986L33.4848 20.8228H25.816Z" fill="#B13126"/>
<path d="M52.4489 24.365H40.604C40.1193 24.365 39.7266 24.7577 39.7266 25.2424C39.7266 25.7271 40.1193 26.1198 40.604 26.1198H52.4489C52.9336 26.1198 53.3263 25.7271 53.3263 25.2424C53.3263 24.7577 52.9336 24.365 52.4489 24.365Z" fill="#B13126"/>
<path d="M34.3186 40.9556H15.5149C15.0303 40.9556 14.6375 41.3483 14.6375 41.833C14.6375 42.3177 15.0303 42.7104 15.5149 42.7104H34.3185C35.3514 42.7104 36.1918 41.87 36.1918 40.8371V38.3691C36.1918 37.3362 35.3514 36.4958 34.3185 36.4958H9.23273C8.19983 36.4958 7.35938 37.3362 7.35938 38.3691V40.8371C7.35938 41.87 8.19983 42.7104 9.23273 42.7104H11.7757C12.2604 42.7104 12.6531 42.3177 12.6531 41.833C12.6531 41.3483 12.2604 40.9556 11.7757 40.9556H9.23273C9.16733 40.9556 9.11422 40.9025 9.11422 40.8371V38.3691C9.11422 38.3038 9.16733 38.2507 9.23273 38.2507H34.3186C34.3839 38.2507 34.437 38.3038 34.437 38.3691V40.8371C34.4369 40.9025 34.3838 40.9556 34.3186 40.9556Z" fill="#B13126"/>
<path d="M8.2368 34.1435H9.35592C9.8406 34.1435 10.2333 33.7508 10.2333 33.2661C10.2333 32.7814 9.8406 32.3887 9.35592 32.3887H8.2368C7.75211 32.3887 7.35938 32.7814 7.35938 33.2661C7.35938 33.7508 7.75223 34.1435 8.2368 34.1435Z" fill="#B13126"/>
<path d="M35.3164 32.3887H12.9009C12.4162 32.3887 12.0234 32.7814 12.0234 33.2661C12.0234 33.7508 12.4162 34.1435 12.9009 34.1435H35.3165C35.8012 34.1435 36.1939 33.7508 36.1939 33.2661C36.1939 32.7814 35.8011 32.3887 35.3164 32.3887Z" fill="#B13126"/>
</g>
<defs>
<clipPath id="clip0_1246_76">
<rect width="60" height="60" fill="white"/>
</clipPath>
</defs>
</svg>
