<svg width="30" height="30" viewBox="0 0 30 30" fill="none" xmlns="http://www.w3.org/2000/svg">
<g clip-path="url(#clip0_1246_420)">
<path d="M29.2895 25.6591L22.3923 18.7614C23.5642 16.8957 24.2444 14.6906 24.2444 12.3241C24.2444 5.62894 18.8168 0.202148 12.1219 0.202148C5.42704 0.202148 0 5.62894 0 12.3241C0 19.0195 5.42679 24.4458 12.1219 24.4458C14.6973 24.4458 17.0827 23.6406 19.0457 22.2725L25.8608 29.0881C26.3343 29.5612 26.9551 29.7968 27.5752 29.7968C28.196 29.7968 28.816 29.5612 29.2903 29.0881C30.2367 28.1407 30.2367 26.6062 29.2895 25.6591ZM12.1219 20.5184C7.59679 20.5184 3.92809 16.85 3.92809 12.3246C3.92809 7.7992 7.59679 4.13049 12.1219 4.13049C16.6473 4.13049 20.3158 7.7992 20.3158 12.3246C20.3158 16.85 16.6473 20.5184 12.1219 20.5184Z" fill="#B13126"/>
</g>
<defs>
<clipPath id="clip0_1246_420">
<rect width="30" height="30" fill="white"/>
</clipPath>
</defs>
</svg>
