<svg width="30" height="30" viewBox="0 0 30 30" fill="none" xmlns="http://www.w3.org/2000/svg">
<path d="M27.4016 28.7469L25.5761 8.41703C25.5262 7.86184 25.0609 7.43658 24.5036 7.43658H20.739V5.7387C20.739 2.57438 18.1647 0 15.0006 0C11.8365 0 9.26259 2.57438 9.26259 5.7387V7.43658H5.49541C4.93807 7.43658 4.47275 7.86184 4.42293 8.41703L2.59024 28.8269C2.56325 29.1281 2.66404 29.4266 2.86805 29.6497C3.07207 29.8728 3.3605 29.9999 3.66272 29.9999H26.3364C26.3373 29.9999 26.3384 29.9999 26.3393 29.9999C26.9341 29.9999 27.4161 29.5177 27.4161 28.9231C27.4159 28.8632 27.411 28.8042 27.4016 28.7469ZM11.4162 5.7387C11.4162 3.76186 13.0242 2.15357 15.0007 2.15357C16.9774 2.15357 18.5856 3.76186 18.5856 5.7387V7.43658H11.4162V5.7387ZM4.84058 27.8464L6.47988 9.59015H9.26259V11.5157C9.26259 12.1104 9.74456 12.5925 10.3394 12.5925C10.9342 12.5925 11.4162 12.1104 11.4162 11.5157V9.59015H18.5856V11.5157C18.5856 12.1104 19.0675 12.5925 19.6623 12.5925C20.2572 12.5925 20.7391 12.1104 20.7391 11.5157V9.59015H23.5192L25.1586 27.8464H4.84058Z" fill="white"/>
</svg>
