<svg width="60" height="60" viewBox="0 0 60 60" fill="none" xmlns="http://www.w3.org/2000/svg">
<g clip-path="url(#clip0_1246_94)">
<path d="M51.8335 2.70483C51.384 2.51532 50.8663 2.72589 50.6767 3.17404C50.4859 3.62357 50.6964 4.1413 51.145 4.33081C55.2283 6.05429 58.2546 10.1357 58.2546 15.0635C58.2546 25.7413 44.9588 30.8298 37.879 22.7851C33.8764 18.2743 33.9221 11.2682 38.3647 6.82562C40.99 4.19898 44.54 3.08569 47.9842 3.49402C48.468 3.54941 48.907 3.20609 48.9647 2.72131C49.0224 2.23746 48.6763 1.79846 48.1925 1.74078C36.6289 0.366577 28.9833 13.3932 35.63 22.7851C34.9219 22.7851 17.9068 22.7851 17.1336 22.7851C16.3088 22.7851 15.6395 23.4557 15.6395 24.2792V35.6977L13.9815 38.9561C13.6675 39.574 13.1438 40.035 12.5226 40.2708C12.5226 38.9089 11.4546 37.9641 10.2608 37.9641H6.85639C5.68222 37.9641 4.59366 38.875 4.59366 40.3165H2.40509C1.07895 40.3165 0 41.3955 0 42.7225V43.7914C0 44.2785 0.394135 44.6735 0.882569 44.6735C1.36963 44.6735 1.76514 44.2785 1.76514 43.7914V42.7225C1.76514 42.3687 2.05216 42.0817 2.40509 42.0817H4.59366V54.2989H2.40509C2.05216 54.2989 1.76514 54.0119 1.76514 53.659V47.3212C1.76514 46.8328 1.36963 46.4387 0.882569 46.4387C0.394135 46.4387 0 46.8328 0 47.3212V53.659C0 54.9851 1.07895 56.0641 2.40509 56.0641H4.59366C4.59366 57.5065 5.68405 58.4174 6.85639 58.4174H10.2608C11.2976 58.4174 12.1729 57.7161 12.4388 56.7631C13.5242 57.0533 10.5345 56.9384 50.0377 56.9384C50.9473 56.9384 51.6875 56.1982 51.6875 55.2886V27.4859C62.6633 22.9938 62.8285 7.36121 51.8335 2.70483ZM10.7574 48.1393C10.7574 49.0781 10.7574 49.3844 10.7574 49.3766V56.1547C10.7574 56.4243 10.5304 56.6528 10.2608 56.6528H6.85639C6.58722 56.6528 6.3588 56.4243 6.3588 56.1547C6.3588 55.4026 6.3588 40.9689 6.3588 40.2273C6.3588 39.9563 6.58722 39.7292 6.85639 39.7292H10.2608C10.5304 39.7292 10.7574 39.9563 10.7574 40.2273V48.1393ZM26.8845 24.5498H33.6145V31.4748L30.9984 29.4282C30.5576 29.0835 29.9377 29.0853 29.5001 29.4282L26.8845 31.4748V24.5498ZM26.6817 55.1687C12.6695 55.1737 13.3516 55.2616 12.5226 54.9357V42.1096C13.8258 41.8221 14.9057 41.027 15.6395 39.5892C15.8345 39.206 17.2888 36.3482 17.6422 35.6542C17.9347 35.0697 19.5873 36.5473 18.8081 38.0772L17.9562 39.7517C17.3822 40.8805 18.2007 42.2158 19.4673 42.2158L30.5232 42.2121C31.0703 42.2121 31.5376 42.6608 31.5317 43.1831C31.5257 43.7012 31.0982 44.1247 30.5782 44.1274H23.6792C23.1917 44.1274 22.7966 44.5225 22.7966 45.01C22.7966 45.4975 23.1917 45.8926 23.6792 45.8926C23.6838 45.8926 33.9784 45.8916 33.9807 45.8916C34.4252 45.8916 34.8889 46.3 34.9608 46.6964C35.089 47.3363 34.7136 47.8051 34.0526 47.8051C34.0498 47.8051 32.6839 47.806 23.605 47.806C23.1175 47.806 22.7225 48.2011 22.7225 48.6886C22.7225 49.1756 23.1175 49.5707 23.605 49.5707C23.6101 49.5707 32.4495 49.5707 32.4545 49.5712C33.3019 49.6023 33.6763 50.6263 33.0936 51.2054C32.9132 51.3866 32.6733 51.4855 32.4179 51.4855C25.6526 51.4896 27.5295 51.4892 22.7573 51.4892C22.2697 51.4892 21.8747 51.8842 21.8747 52.3718C21.8747 52.8593 22.2697 53.2543 22.7573 53.2543C26.96 53.2543 26.9833 53.1605 27.3592 53.534C27.957 54.1337 27.5322 55.1687 26.6817 55.1687ZM49.9223 55.1733H44.8604V38.2053C44.8604 37.7183 44.4649 37.3228 43.9778 37.3228C43.4894 37.3228 43.0953 37.7183 43.0953 38.2053V55.1733H29.2246C29.469 54.5319 29.4653 53.8577 29.236 53.2529L32.4179 53.2507C34.3776 53.2507 35.6932 51.2397 34.9136 49.443C36.8752 48.836 37.3521 46.3892 35.9349 44.9665C34.9818 44.0134 34.0311 44.1265 33.1215 44.1265C33.8036 42.3298 32.4271 40.447 30.5232 40.447L19.5813 40.4507L20.3815 38.8787C21.7236 36.2392 19.4046 33.3288 17.4046 33.8044V24.5498H25.1193V32.6018C25.1193 33.2725 25.6654 33.8181 26.3365 33.8181C26.8803 33.8181 26.77 33.8049 30.2495 31.0834C33.6813 33.7682 33.6063 33.8181 34.162 33.8181C34.8335 33.8181 35.3796 33.2725 35.3796 32.6018V24.5498H37.1187C38.8028 26.2339 40.8559 27.4154 43.0953 28.0164V34.6755C43.0953 35.1626 43.4894 35.5581 43.9778 35.5581C44.4649 35.5581 44.8604 35.1626 44.8604 34.6755V28.3671C46.5399 28.5845 48.2712 28.4856 49.9223 28.0672V55.1733Z" fill="#B13126"/>
<path d="M40.7775 14.9033C40.4543 14.538 39.8963 14.5046 39.5319 14.8278C39.1666 15.151 39.1332 15.7085 39.4564 16.0734L43.0109 20.0866C43.6958 20.8593 44.901 20.8579 45.5849 20.0903L53.7478 10.929C54.0723 10.5656 54.0398 10.0076 53.6759 9.68346C53.312 9.35937 52.7544 9.39095 52.4299 9.75487L44.2995 18.879L40.7775 14.9033Z" fill="#B13126"/>
</g>
<defs>
<clipPath id="clip0_1246_94">
<rect width="60" height="60" fill="white"/>
</clipPath>
</defs>
</svg>
