<svg width="80" height="80" viewBox="0 0 80 80" fill="none" xmlns="http://www.w3.org/2000/svg">
<mask id="mask0_1246_302" style="mask-type:luminance" maskUnits="userSpaceOnUse" x="0" y="0" width="80" height="80">
<path d="M79 79V1.00001H1V79H79Z" fill="white" stroke="white" stroke-width="2"/>
</mask>
<g mask="url(#mask0_1246_302)">
<path d="M49.9203 37.4219V75.1187C49.9203 77.1673 48.2597 78.8281 46.2109 78.8281H31.4516C29.403 78.8281 27.7422 77.1673 27.7422 75.1187V37.4219C27.7422 35.9594 28.0516 34.5344 28.6313 33.2281C29.2109 31.9219 30.0625 30.7359 31.1469 29.7563C33.3156 27.7984 34.5531 25.0125 34.5531 22.0906V5.88282C34.5531 5.57298 34.8044 5.32188 35.1141 5.32188H42.547C42.8567 5.32188 43.1078 5.57298 43.1078 5.88282V22.0906C43.1078 23.5516 43.4172 24.9781 43.9984 26.2844C44.5797 27.5906 45.4297 28.7766 46.5156 29.7563C48.6828 31.7156 49.9203 34.5 49.9203 37.4219Z" fill="white" stroke="#B13126" stroke-width="2" stroke-miterlimit="10" stroke-linecap="round" stroke-linejoin="round"/>
<path d="M41.7245 1.17211H35.9359C35.6261 1.17211 35.375 1.4232 35.375 1.73305V5.32227H42.2855V1.73305C42.2855 1.4232 42.0344 1.17211 41.7245 1.17211Z" fill="white" stroke="#B13126" stroke-width="2" stroke-miterlimit="10" stroke-linecap="round" stroke-linejoin="round"/>
<path d="M43.11 5.88313V17.7377L34.5547 19.2148V5.88313C34.5547 5.57344 34.8058 5.32219 35.1156 5.32219H42.5491C42.8589 5.32219 43.11 5.57344 43.11 5.88313Z" fill="white" stroke="#B13126" stroke-width="2" stroke-miterlimit="10" stroke-linecap="round" stroke-linejoin="round"/>
<path d="M39.5141 51.2209V67.6766C39.5141 69.0156 38.4281 70.1016 37.0891 70.1016H27.7422V39.6375H37.0891C38.4281 39.6375 39.5141 40.7234 39.5141 42.0625V45.557" fill="white"/>
<path d="M39.5141 51.2209V67.6766C39.5141 69.0156 38.4281 70.1016 37.0891 70.1016H27.7422V39.6375H37.0891C38.4281 39.6375 39.5141 40.7234 39.5141 42.0625V45.557" stroke="#B13126" stroke-width="2" stroke-miterlimit="10" stroke-linecap="round" stroke-linejoin="round"/>
<path d="M67.6312 26.1677C67.6312 27.6286 67.9406 29.0552 68.5219 30.3614C69.1031 31.6677 69.9531 32.8536 71.0391 33.8333C73.2062 35.7927 74.4437 38.577 74.4437 41.4989V75.1187C74.4437 77.1673 72.783 78.8281 70.7344 78.8281H53.6312C51.5827 78.8281 49.9219 77.1673 49.9219 75.1187V41.4989C49.9219 40.0364 50.2312 38.6114 50.8109 37.3052C51.3906 35.9989 52.2422 34.813 53.3266 33.8333C55.4953 31.8755 56.7328 29.0895 56.7328 26.1677V6.99969C56.7328 6.07313 57.4839 5.32188 58.4105 5.32188H65.9536C66.88 5.32188 67.6312 6.07313 67.6312 6.99969V14.4695" fill="white"/>
<path d="M67.6312 26.1677C67.6312 27.6286 67.9406 29.0552 68.5219 30.3614C69.1031 31.6677 69.9531 32.8536 71.0391 33.8333C73.2062 35.7927 74.4437 38.577 74.4437 41.4989V75.1187C74.4437 77.1673 72.783 78.8281 70.7344 78.8281H53.6312C51.5827 78.8281 49.9219 77.1673 49.9219 75.1187V41.4989C49.9219 40.0364 50.2312 38.6114 50.8109 37.3052C51.3906 35.9989 52.2422 34.813 53.3266 33.8333C55.4953 31.8755 56.7328 29.0895 56.7328 26.1677V6.99969C56.7328 6.07313 57.4839 5.32188 58.4105 5.32188H65.9536C66.88 5.32188 67.6312 6.07313 67.6312 6.99969V14.4695" stroke="#B13126" stroke-width="2" stroke-miterlimit="10" stroke-linecap="round" stroke-linejoin="round"/>
<path d="M67.6312 23.8686V26.1674C67.6312 27.6283 67.9406 29.0549 68.5219 30.3611C69.1031 31.6674 69.9531 32.8533 71.0391 33.833C73.2062 35.7924 74.4437 38.5768 74.4437 41.4986V42.4283L63.3617 45.7938C62.5931 46.0271 61.7725 46.0271 61.0039 45.7938L49.9219 42.4283V41.4986C49.9219 40.0361 50.2312 38.6111 50.8109 37.3049C51.3906 35.9986 52.2422 34.8127 53.3266 33.833C55.4953 31.8752 56.7328 29.0893 56.7328 26.1674V12.2686H67.6312V18.2958" fill="white"/>
<path d="M67.6312 23.8686V26.1674C67.6312 27.6283 67.9406 29.0549 68.5219 30.3611C69.1031 31.6674 69.9531 32.8533 71.0391 33.833C73.2062 35.7924 74.4437 38.5768 74.4437 41.4986V42.4283L63.3617 45.7938C62.5931 46.0271 61.7725 46.0271 61.0039 45.7938L49.9219 42.4283V41.4986C49.9219 40.0361 50.2312 38.6111 50.8109 37.3049C51.3906 35.9986 52.2422 34.8127 53.3266 33.833C55.4953 31.8752 56.7328 29.0893 56.7328 26.1674V12.2686H67.6312V18.2958" stroke="#B13126" stroke-width="2" stroke-miterlimit="10" stroke-linecap="round" stroke-linejoin="round"/>
<path d="M67.2572 61.6502C67.2572 66.7568 64.9837 70.8965 62.1794 70.8965C59.375 70.8965 57.1016 66.7568 57.1016 61.6502C57.1016 56.5437 59.375 52.4041 62.1794 52.4041C64.9837 52.4041 67.2572 56.5437 67.2572 61.6502Z" fill="white" stroke="#B13126" stroke-width="2" stroke-miterlimit="10" stroke-linecap="round" stroke-linejoin="round"/>
<path d="M59.5312 38.3516H64.8245H59.5312Z" fill="white"/>
<path d="M59.5312 38.3516H64.8245" stroke="#B13126" stroke-width="2" stroke-miterlimit="10" stroke-linecap="round" stroke-linejoin="round"/>
<path d="M5.5625 65.3799V29.5205C5.5625 28.058 5.87187 26.6332 6.45156 25.3268C7.03125 24.0205 7.88281 22.8346 8.96719 21.8549C11.1359 19.8971 12.3734 17.1111 12.3734 14.1893V11.3486" fill="white"/>
<path d="M5.5625 65.3799V29.5205C5.5625 28.058 5.87188 26.6332 6.45156 25.3268C7.03125 24.0205 7.88281 22.8346 8.96719 21.8549C11.1359 19.8971 12.3734 17.1111 12.3734 14.1893V11.3486" stroke="#B13126" stroke-width="2" stroke-miterlimit="10" stroke-linecap="round" stroke-linejoin="round"/>
<path d="M20.9281 11.3484V14.1891C20.9281 15.65 21.2375 17.0766 21.8187 18.3828C22.4 19.6891 23.25 20.875 24.3359 21.8547C26.5031 23.8141 27.7406 26.5984 27.7406 29.5203V75.1188C27.7406 77.1672 26.0797 78.8281 24.0312 78.8281H9.27187C7.22344 78.8281 5.5625 77.1672 5.5625 75.1188V70.7403" fill="white"/>
<path d="M20.9281 11.3484V14.1891C20.9281 15.65 21.2375 17.0766 21.8187 18.3828C22.4 19.6891 23.25 20.875 24.3359 21.8547C26.5031 23.8141 27.7406 26.5984 27.7406 29.5203V75.1188C27.7406 77.1672 26.0797 78.8281 24.0312 78.8281H9.27187C7.22344 78.8281 5.5625 77.1672 5.5625 75.1188V70.7403" stroke="#B13126" stroke-width="2" stroke-miterlimit="10" stroke-linecap="round" stroke-linejoin="round"/>
<path d="M12.375 6.12207V2.6002C12.375 2.29082 12.6266 2.03926 12.9359 2.03926H20.3688C20.6781 2.03926 20.9297 2.29082 20.9297 2.6002V6.12207" fill="white"/>
<path d="M12.375 6.12207V2.6002C12.375 2.29082 12.6266 2.03926 12.9359 2.03926H20.3687C20.6781 2.03926 20.9297 2.29082 20.9297 2.6002V6.12207" stroke="#B13126" stroke-width="2" stroke-miterlimit="10" stroke-linecap="round" stroke-linejoin="round"/>
<path d="M20.6714 11.3608H12.6316C11.2473 11.3608 10.125 10.2387 10.125 8.85428V8.61568C10.125 7.23147 11.2473 6.10928 12.6316 6.10928H20.6714C22.0556 6.10928 23.178 7.23147 23.178 8.61568V8.85428C23.178 10.2387 22.0556 11.3608 20.6714 11.3608Z" fill="white" stroke="#B13126" stroke-width="2" stroke-miterlimit="10" stroke-linecap="round" stroke-linejoin="round"/>
<path d="M27.7406 60.338L5.5625 65.3799V38.7314L27.7406 33.6894V60.338Z" fill="white" stroke="#B13126" stroke-width="2" stroke-miterlimit="10" stroke-linecap="round" stroke-linejoin="round"/>
<path d="M21.5903 52.9168C21.5903 55.5564 19.4505 57.6963 16.8108 57.6963C14.1712 57.6963 12.0312 55.5564 12.0312 52.9168" fill="white"/>
<path d="M21.5903 52.9168C21.5903 55.5564 19.4505 57.6963 16.8108 57.6963C14.1712 57.6963 12.0312 55.5564 12.0312 52.9168" stroke="#B13126" stroke-width="2" stroke-miterlimit="10" stroke-linecap="round" stroke-linejoin="round"/>
<path d="M12.0312 46.1519C12.0312 43.5122 14.1711 41.3723 16.8108 41.3723C19.4503 41.3723 21.5903 43.5122 21.5903 46.1519" fill="white"/>
<path d="M12.0312 46.1519C12.0312 43.5122 14.1711 41.3723 16.8108 41.3723C19.4503 41.3723 21.5903 43.5122 21.5903 46.1519" stroke="#B13126" stroke-width="2" stroke-miterlimit="10" stroke-linecap="round" stroke-linejoin="round"/>
</g>
</svg>
