<svg width="60" height="60" viewBox="0 0 60 60" fill="none" xmlns="http://www.w3.org/2000/svg">
<mask id="mask0_1246_38" style="mask-type:luminance" maskUnits="userSpaceOnUse" x="0" y="0" width="60" height="60">
<path d="M59 59V1H1V59H59Z" fill="white" stroke="white" stroke-width="2"/>
</mask>
<g mask="url(#mask0_1246_38)">
<path d="M37.4461 28.0664V56.3391C37.4461 57.8755 36.2006 59.1211 34.6641 59.1211H23.5945C22.0581 59.1211 20.8125 57.8755 20.8125 56.3391V28.0664C20.8125 26.9695 21.0445 25.9008 21.4793 24.9211C21.9141 23.9414 22.5527 23.052 23.366 22.3172C24.9926 20.8488 25.9207 18.7594 25.9207 16.568V4.41211C25.9207 4.17973 26.1091 3.99141 26.3414 3.99141H31.9161C32.1484 3.99141 32.3367 4.17973 32.3367 4.41211V16.568C32.3367 17.6637 32.5688 18.7336 33.0047 19.7133C33.4406 20.693 34.0781 21.5824 34.8926 22.3172C36.518 23.7867 37.4461 25.875 37.4461 28.0664Z" fill="#2B2B2A" stroke="#B13126" stroke-width="2" stroke-miterlimit="10" stroke-linecap="round" stroke-linejoin="round"/>
<path d="M31.2934 0.878838H26.952C26.7196 0.878838 26.5312 1.06716 26.5312 1.29954V3.99146H31.7141V1.29954C31.7141 1.06716 31.5258 0.878838 31.2934 0.878838Z" fill="#2B2B2A" stroke="#B13126" stroke-width="2" stroke-miterlimit="10" stroke-linecap="round" stroke-linejoin="round"/>
<path d="M32.3384 4.41234V13.3032L25.9219 14.4111V4.41234C25.9219 4.18008 26.1102 3.99164 26.3426 3.99164H31.9177C32.15 3.99164 32.3384 4.18008 32.3384 4.41234Z" fill="#2B2B2A" stroke="#B13126" stroke-width="2" stroke-miterlimit="10" stroke-linecap="round" stroke-linejoin="round"/>
<path d="M29.6414 38.4157V50.7574C29.6414 51.7617 28.827 52.5762 27.8227 52.5762H20.8125V29.7281H27.8227C28.827 29.7281 29.6414 30.5426 29.6414 31.5469V34.1678" fill="#2B2B2A"/>
<path d="M29.6414 38.4157V50.7574C29.6414 51.7617 28.827 52.5762 27.8227 52.5762H20.8125V29.7281H27.8227C28.827 29.7281 29.6414 30.5426 29.6414 31.5469V34.1678" stroke="#B13126" stroke-width="2" stroke-miterlimit="10" stroke-linecap="round" stroke-linejoin="round"/>
<path d="M50.7195 19.6257C50.7195 20.7214 50.9516 21.7914 51.3875 22.7711C51.8234 23.7507 52.4609 24.6402 53.2754 25.375C54.9008 26.8445 55.8289 28.9328 55.8289 31.1242V56.3391C55.8289 57.8755 54.5833 59.1211 53.0469 59.1211H40.2195C38.6831 59.1211 37.4375 57.8755 37.4375 56.3391V31.1242C37.4375 30.0273 37.6695 28.9586 38.1043 27.9789C38.5391 26.9992 39.1777 26.1097 39.991 25.375C41.6176 23.9066 42.5457 21.8172 42.5457 19.6257V5.24977C42.5457 4.55484 43.109 3.99141 43.8039 3.99141H49.4613C50.1561 3.99141 50.7195 4.55484 50.7195 5.24977V10.8521" fill="#2B2B2A"/>
<path d="M50.7195 19.6257C50.7195 20.7214 50.9516 21.7914 51.3875 22.7711C51.8234 23.7507 52.4609 24.6402 53.2754 25.375C54.9008 26.8445 55.8289 28.9328 55.8289 31.1242V56.3391C55.8289 57.8755 54.5833 59.1211 53.0469 59.1211H40.2195C38.6831 59.1211 37.4375 57.8755 37.4375 56.3391V31.1242C37.4375 30.0273 37.6695 28.9586 38.1043 27.9789C38.5391 26.9992 39.1777 26.1097 39.991 25.375C41.6176 23.9066 42.5457 21.8171 42.5457 19.6257V5.24977C42.5457 4.55484 43.109 3.99141 43.8039 3.99141H49.4613C50.1561 3.99141 50.7195 4.55484 50.7195 5.24977V10.8521" stroke="#B13126" stroke-width="2" stroke-miterlimit="10" stroke-linecap="round" stroke-linejoin="round"/>
<path d="M50.7195 17.9015V19.6255C50.7195 20.7212 50.9516 21.7912 51.3875 22.7708C51.8234 23.7505 52.4609 24.64 53.2754 25.3748C54.9008 26.8443 55.8289 28.9326 55.8289 31.124V31.8212L47.5174 34.3453C46.9409 34.5203 46.3255 34.5203 45.749 34.3453L37.4375 31.8212V31.124C37.4375 30.0271 37.6695 28.9583 38.1043 27.9787C38.5391 26.999 39.1777 26.1095 39.991 25.3748C41.6176 23.9064 42.5457 21.8169 42.5457 19.6255V9.20147H50.7195V13.7219" fill="#2B2B2A"/>
<path d="M50.7195 17.9015V19.6255C50.7195 20.7212 50.9516 21.7912 51.3875 22.7708C51.8234 23.7505 52.4609 24.64 53.2754 25.3748C54.9008 26.8443 55.8289 28.9326 55.8289 31.124V31.8212L47.5174 34.3453C46.9409 34.5203 46.3255 34.5203 45.749 34.3453L37.4375 31.8212V31.124C37.4375 30.0271 37.6695 28.9583 38.1043 27.9787C38.5391 26.999 39.1777 26.1095 39.991 25.3748C41.6176 23.9064 42.5457 21.8169 42.5457 19.6255V9.20147H50.7195V13.7219" stroke="#B13126" stroke-width="2" stroke-miterlimit="10" stroke-linecap="round" stroke-linejoin="round"/>
<path d="M50.4448 46.2379C50.4448 50.0678 48.7398 53.1726 46.6365 53.1726C44.5332 53.1726 42.8281 50.0678 42.8281 46.2379C42.8281 42.408 44.5332 39.3033 46.6365 39.3033C48.7398 39.3033 50.4448 42.408 50.4448 46.2379Z" fill="#2B2B2A" stroke="#B13126" stroke-width="2" stroke-miterlimit="10" stroke-linecap="round" stroke-linejoin="round"/>
<path d="M44.6484 28.7637H48.6184H44.6484Z" fill="#2B2B2A"/>
<path d="M44.6484 28.7637H48.6184" stroke="#B13126" stroke-width="2" stroke-miterlimit="10" stroke-linecap="round" stroke-linejoin="round"/>
<path d="M4.17188 49.0347V22.1401C4.17188 21.0433 4.40391 19.9746 4.83867 18.9948C5.27344 18.0151 5.91211 17.1257 6.72539 16.3909C8.35195 14.9226 9.28008 12.8331 9.28008 10.6417V8.51123" fill="#2B2B2A"/>
<path d="M4.17188 49.0347V22.1401C4.17188 21.0433 4.40391 19.9746 4.83867 18.9948C5.27344 18.0151 5.91211 17.1257 6.72539 16.3909C8.35195 14.9226 9.28008 12.8331 9.28008 10.6417V8.51123" stroke="#B13126" stroke-width="2" stroke-miterlimit="10" stroke-linecap="round" stroke-linejoin="round"/>
<path d="M15.6961 8.51133V10.6418C15.6961 11.7375 15.9281 12.8074 16.3641 13.7871C16.8 14.7668 17.4375 15.6562 18.252 16.391C19.8773 17.8605 20.8055 19.9488 20.8055 22.1402V56.3391C20.8055 57.8754 19.5598 59.1211 18.0234 59.1211H6.95391C5.41758 59.1211 4.17188 57.8754 4.17188 56.3391V53.0552" fill="#2B2B2A"/>
<path d="M15.6961 8.51133V10.6418C15.6961 11.7375 15.9281 12.8074 16.3641 13.7871C16.8 14.7668 17.4375 15.6562 18.252 16.391C19.8773 17.8605 20.8055 19.9488 20.8055 22.1402V56.3391C20.8055 57.8754 19.5598 59.1211 18.0234 59.1211H6.95391C5.41758 59.1211 4.17188 57.8754 4.17188 56.3391V53.0552" stroke="#B13126" stroke-width="2" stroke-miterlimit="10" stroke-linecap="round" stroke-linejoin="round"/>
<path d="M9.28125 4.59131V1.9499C9.28125 1.71787 9.46992 1.5292 9.70195 1.5292H15.2766C15.5086 1.5292 15.6973 1.71787 15.6973 1.9499V4.59131" fill="#2B2B2A"/>
<path d="M9.28125 4.59131V1.9499C9.28125 1.71787 9.46992 1.5292 9.70195 1.5292H15.2766C15.5086 1.5292 15.6973 1.71787 15.6973 1.9499V4.59131" stroke="#B13126" stroke-width="2" stroke-miterlimit="10" stroke-linecap="round" stroke-linejoin="round"/>
<path d="M15.5036 8.52051H9.47367C8.43551 8.52051 7.59375 7.67887 7.59375 6.64059V6.46164C7.59375 5.42348 8.43551 4.58184 9.47367 4.58184H15.5036C16.5417 4.58184 17.3835 5.42348 17.3835 6.46164V6.64059C17.3835 7.67887 16.5417 8.52051 15.5036 8.52051Z" fill="#2B2B2A" stroke="#B13126" stroke-width="2" stroke-miterlimit="10" stroke-linecap="round" stroke-linejoin="round"/>
<path d="M20.8055 45.2533L4.17188 49.0347V29.0483L20.8055 25.2668V45.2533Z" fill="#2B2B2A" stroke="#B13126" stroke-width="2" stroke-miterlimit="10" stroke-linecap="round" stroke-linejoin="round"/>
<path d="M16.1927 39.6878C16.1927 41.6676 14.5879 43.2725 12.6081 43.2725C10.6284 43.2725 9.02344 41.6676 9.02344 39.6878" fill="#2B2B2A"/>
<path d="M16.1927 39.6878C16.1927 41.6676 14.5879 43.2725 12.6081 43.2725C10.6284 43.2725 9.02344 41.6676 9.02344 39.6878" stroke="#B13126" stroke-width="2" stroke-miterlimit="10" stroke-linecap="round" stroke-linejoin="round"/>
<path d="M9.02344 34.6138C9.02344 32.634 10.6283 31.0291 12.6081 31.0291C14.5877 31.0291 16.1927 32.634 16.1927 34.6138" fill="#2B2B2A"/>
<path d="M9.02344 34.6138C9.02344 32.634 10.6283 31.0291 12.6081 31.0291C14.5877 31.0291 16.1927 32.634 16.1927 34.6138" stroke="#B13126" stroke-width="2" stroke-miterlimit="10" stroke-linecap="round" stroke-linejoin="round"/>
</g>
</svg>
