<svg width="20" height="21" viewBox="0 0 20 21" fill="none" xmlns="http://www.w3.org/2000/svg">
<path d="M13.71 11.4778C14.6904 10.7065 15.406 9.64873 15.7572 8.45175C16.1085 7.25477 16.0779 5.97808 15.6698 4.79928C15.2617 3.62048 14.4963 2.5982 13.4801 1.87467C12.4639 1.15113 11.2474 0.762314 10 0.762314C8.75255 0.762314 7.53611 1.15113 6.51993 1.87467C5.50374 2.5982 4.73834 3.62048 4.33021 4.79928C3.92208 5.97808 3.89151 7.25477 4.24276 8.45175C4.59401 9.64873 5.3096 10.7065 6.29 11.4778C4.61007 12.1509 3.14428 13.2672 2.04889 14.7077C0.953495 16.1483 0.26956 17.8591 0.0699967 19.6578C0.0555513 19.7891 0.0671132 19.922 0.104022 20.0489C0.140931 20.1757 0.202464 20.2941 0.285108 20.3971C0.452016 20.6053 0.69478 20.7386 0.959997 20.7678C1.22521 20.797 1.49116 20.7196 1.69932 20.5527C1.90749 20.3858 2.04082 20.143 2.07 19.8778C2.28958 17.923 3.22168 16.1176 4.68822 14.8066C6.15475 13.4956 8.0529 12.7708 10.02 12.7708C11.9871 12.7708 13.8852 13.4956 15.3518 14.8066C16.8183 16.1176 17.7504 17.923 17.97 19.8778C17.9972 20.1235 18.1144 20.3505 18.2991 20.5148C18.4838 20.6792 18.7228 20.7693 18.97 20.7678H19.08C19.3421 20.7376 19.5817 20.6051 19.7466 20.3991C19.9114 20.193 19.9881 19.9302 19.96 19.6678C19.7595 17.864 19.0719 16.1488 17.9708 14.706C16.8698 13.2632 15.3969 12.1473 13.71 11.4778ZM10 10.7678C9.20887 10.7678 8.43551 10.5332 7.77772 10.0937C7.11992 9.65416 6.60723 9.02945 6.30448 8.29854C6.00173 7.56764 5.92251 6.76337 6.07686 5.98745C6.2312 5.21152 6.61216 4.49879 7.17157 3.93938C7.73098 3.37997 8.44371 2.99901 9.21964 2.84467C9.99556 2.69033 10.7998 2.76954 11.5307 3.07229C12.2616 3.37504 12.8863 3.88773 13.3259 4.54553C13.7654 5.20333 14 5.97668 14 6.76781C14 7.82868 13.5786 8.84609 12.8284 9.59624C12.0783 10.3464 11.0609 10.7678 10 10.7678Z" fill="#4ade80"/>
</svg>
