<svg width="20" height="21" viewBox="0 0 20 21" fill="none" xmlns="http://www.w3.org/2000/svg">
<path d="M13.71 11.2592C13.801 11.1641 13.8724 11.052 13.92 10.9292C14.02 10.6857 14.02 10.4127 13.92 10.1692C13.8724 10.0464 13.801 9.9343 13.71 9.8392L10.71 6.8392C10.5217 6.6509 10.2663 6.54511 10 6.54511C9.7337 6.54511 9.47831 6.6509 9.29 6.8392C9.1017 7.0275 8.99591 7.2829 8.99591 7.5492C8.99591 7.8155 9.1017 8.0709 9.29 8.2592L10.59 9.5492H7C6.73479 9.5492 6.48043 9.65456 6.2929 9.84209C6.10536 10.0296 6 10.284 6 10.5492C6 10.8144 6.10536 11.0688 6.2929 11.2563C6.48043 11.4438 6.73479 11.5492 7 11.5492H10.59L9.29 12.8392C9.19628 12.9322 9.12188 13.0428 9.07111 13.1646C9.02034 13.2865 8.99421 13.4172 8.99421 13.5492C8.99421 13.6812 9.02034 13.8119 9.07111 13.9338C9.12188 14.0556 9.19628 14.1662 9.29 14.2592C9.38297 14.3529 9.49357 14.4273 9.61543 14.4781C9.73729 14.5289 9.86799 14.555 10 14.555C10.132 14.555 10.2627 14.5289 10.3846 14.4781C10.5064 14.4273 10.617 14.3529 10.71 14.2592L13.71 11.2592ZM20 10.5492C20 8.57139 19.4135 6.63799 18.3147 4.9935C17.2159 3.349 15.6541 2.06728 13.8268 1.3104C11.9996 0.553527 9.98891 0.355494 8.0491 0.741346C6.10929 1.1272 4.32746 2.07961 2.92894 3.47813C1.53041 4.87666 0.578004 6.65849 0.192152 8.5983C-0.193701 10.5381 0.00433284 12.5488 0.761209 14.376C1.51809 16.2033 2.79981 17.7651 4.4443 18.8639C6.08879 19.9627 8.02219 20.5492 10 20.5492C12.6522 20.5492 15.1957 19.4956 17.0711 17.6203C18.9464 15.7449 20 13.2014 20 10.5492ZM2 10.5492C2 8.96695 2.4692 7.42023 3.34825 6.10464C4.2273 4.78904 5.47673 3.76366 6.93854 3.15816C8.40035 2.55266 10.0089 2.39424 11.5607 2.70292C13.1126 3.0116 14.538 3.77352 15.6569 4.89234C16.7757 6.01116 17.5376 7.43663 17.8463 8.98848C18.155 10.5403 17.9965 12.1489 17.391 13.6107C16.7855 15.0725 15.7602 16.3219 14.4446 17.201C13.129 18.08 11.5823 18.5492 10 18.5492C7.87827 18.5492 5.84344 17.7063 4.34315 16.2061C2.84286 14.7058 2 12.6709 2 10.5492Z" fill="#4ade80"/>
</svg>
