<svg width="20" height="21" viewBox="0 0 20 21" fill="none" xmlns="http://www.w3.org/2000/svg">
<path d="M13.71 10.7682C13.801 10.6731 13.8724 10.561 13.92 10.4382C14.02 10.1948 14.02 9.92169 13.92 9.67823C13.8724 9.55548 13.801 9.44334 13.71 9.34823L10.71 6.34823C10.5217 6.15993 10.2663 6.05414 10 6.05414C9.7337 6.05414 9.47831 6.15993 9.29 6.34823C9.1017 6.53654 8.99591 6.79193 8.99591 7.05823C8.99591 7.32453 9.1017 7.57993 9.29 7.76823L10.59 9.05823H7C6.73479 9.05823 6.48043 9.16359 6.2929 9.35113C6.10536 9.53866 6 9.79302 6 10.0582C6 10.3234 6.10536 10.5778 6.2929 10.7653C6.48043 10.9529 6.73479 11.0582 7 11.0582H10.59L9.29 12.3482C9.19628 12.4412 9.12188 12.5518 9.07111 12.6737C9.02034 12.7955 8.99421 12.9262 8.99421 13.0582C8.99421 13.1902 9.02034 13.3209 9.07111 13.4428C9.12188 13.5647 9.19628 13.6753 9.29 13.7682C9.38297 13.862 9.49357 13.9364 9.61543 13.9871C9.73729 14.0379 9.86799 14.064 10 14.064C10.132 14.064 10.2627 14.0379 10.3846 13.9871C10.5064 13.9364 10.617 13.862 10.71 13.7682L13.71 10.7682ZM20 10.0582C20 8.08042 19.4135 6.14702 18.3147 4.50253C17.2159 2.85804 15.6541 1.57631 13.8268 0.819437C11.9996 0.0625604 9.98891 -0.135473 8.0491 0.250379C6.10929 0.636231 4.32746 1.58864 2.92894 2.98716C1.53041 4.38569 0.578004 6.16752 0.192152 8.10733C-0.193701 10.0471 0.00433284 12.0578 0.761209 13.8851C1.51809 15.7123 2.79981 17.2741 4.4443 18.3729C6.08879 19.4717 8.02219 20.0582 10 20.0582C12.6522 20.0582 15.1957 19.0047 17.0711 17.1293C18.9464 15.2539 20 12.7104 20 10.0582ZM2 10.0582C2 8.47598 2.4692 6.92926 3.34825 5.61367C4.2273 4.29808 5.47673 3.2727 6.93854 2.6672C8.40035 2.0617 10.0089 1.90327 11.5607 2.21195C13.1126 2.52063 14.538 3.28256 15.6569 4.40138C16.7757 5.5202 17.5376 6.94566 17.8463 8.49751C18.155 10.0494 17.9965 11.6579 17.391 13.1197C16.7855 14.5815 15.7602 15.8309 14.4446 16.71C13.129 17.589 11.5823 18.0582 10 18.0582C7.87827 18.0582 5.84344 17.2154 4.34315 15.7151C2.84286 14.2148 2 12.18 2 10.0582Z" fill="white"/>
</svg>
