<svg width="19" height="21" viewBox="0 0 19 21" fill="none" xmlns="http://www.w3.org/2000/svg">
<path d="M18.5 13.4624C18.4978 12.8621 18.3155 12.2763 17.9768 11.7807C17.6381 11.2851 17.1585 10.9025 16.6 10.6824L18.47 3.68238C18.5091 3.5333 18.5131 3.37721 18.4819 3.22629C18.4507 3.07538 18.385 2.93372 18.29 2.81238C18.1929 2.69869 18.0715 2.60822 17.9348 2.54765C17.798 2.48708 17.6495 2.45794 17.5 2.46238H3.8L3.47 1.20238C3.41263 0.989292 3.28638 0.801166 3.11093 0.667317C2.93547 0.533467 2.72068 0.461413 2.5 0.462381H0.5V2.46238H1.73L4.21 11.7224C4.2686 11.9405 4.39934 12.1324 4.58092 12.2668C4.76251 12.4012 4.98424 12.4701 5.21 12.4624H15.5C15.7652 12.4624 16.0196 12.5677 16.2071 12.7553C16.3946 12.9428 16.5 13.1972 16.5 13.4624C16.5 13.7276 16.3946 13.982 16.2071 14.1695C16.0196 14.357 15.7652 14.4624 15.5 14.4624H2.5C2.23478 14.4624 1.98043 14.5677 1.79289 14.7553C1.60536 14.9428 1.5 15.1972 1.5 15.4624C1.5 15.7276 1.60536 15.982 1.79289 16.1695C1.98043 16.357 2.23478 16.4624 2.5 16.4624H3.68C3.51554 16.9155 3.46269 17.4016 3.52593 17.8795C3.58917 18.3574 3.76665 18.813 4.04332 19.2077C4.31999 19.6025 4.68772 19.9248 5.11535 20.1472C5.54299 20.3697 6.01795 20.4859 6.5 20.4859C6.98205 20.4859 7.45701 20.3697 7.88465 20.1472C8.31228 19.9248 8.68001 19.6025 8.95668 19.2077C9.23335 18.813 9.41083 18.3574 9.47407 17.8795C9.53731 17.4016 9.48446 16.9155 9.32 16.4624H11.68C11.5303 16.875 11.4729 17.3154 11.512 17.7526C11.551 18.1898 11.6856 18.6131 11.906 18.9926C12.1265 19.3721 12.4276 19.6987 12.788 19.9492C13.1485 20.1997 13.5595 20.368 13.9921 20.4423C14.4247 20.5167 14.8683 20.4952 15.2917 20.3793C15.715 20.2635 16.1078 20.0562 16.4424 19.7721C16.7769 19.4879 17.045 19.1338 17.2277 18.7347C17.4105 18.3356 17.5034 17.9013 17.5 17.4624C17.4981 16.9457 17.3602 16.4387 17.1 15.9924C17.5276 15.7228 17.8802 15.3495 18.1249 14.9072C18.3697 14.4649 18.4987 13.9679 18.5 13.4624ZM14.59 10.4624H6L4.34 4.46238H16.2L14.59 10.4624ZM6.5 18.4624C6.30222 18.4624 6.10888 18.4037 5.94443 18.2939C5.77998 18.184 5.65181 18.0278 5.57612 17.8451C5.50043 17.6623 5.48063 17.4613 5.51921 17.2673C5.5578 17.0733 5.65304 16.8951 5.79289 16.7553C5.93275 16.6154 6.11093 16.5202 6.30491 16.4816C6.49889 16.443 6.69996 16.4628 6.88268 16.5385C7.06541 16.6142 7.22159 16.7424 7.33147 16.9068C7.44135 17.0713 7.5 17.2646 7.5 17.4624C7.5 17.7276 7.39464 17.982 7.20711 18.1695C7.01957 18.357 6.76522 18.4624 6.5 18.4624ZM14.5 18.4624C14.3022 18.4624 14.1089 18.4037 13.9444 18.2939C13.78 18.184 13.6518 18.0278 13.5761 17.8451C13.5004 17.6623 13.4806 17.4613 13.5192 17.2673C13.5578 17.0733 13.653 16.8951 13.7929 16.7553C13.9327 16.6154 14.1109 16.5202 14.3049 16.4816C14.4989 16.443 14.7 16.4628 14.8827 16.5385C15.0654 16.6142 15.2216 16.7424 15.3315 16.9068C15.4414 17.0713 15.5 17.2646 15.5 17.4624C15.5 17.7276 15.3946 17.982 15.2071 18.1695C15.0196 18.357 14.7652 18.4624 14.5 18.4624Z" fill="#4ade80"/>
</svg>
