<svg width="21" height="21" viewBox="0 0 21 21" fill="none" xmlns="http://www.w3.org/2000/svg">
<path d="M9.13316 12.9688C9.22612 13.0625 9.33672 13.1369 9.45858 13.1876C9.58044 13.2384 9.71115 13.2645 9.84316 13.2645C9.97517 13.2645 10.1059 13.2384 10.2277 13.1876C10.3496 13.1369 10.4602 13.0625 10.5532 12.9688L14.6332 8.88875C14.8215 8.70045 14.9272 8.44505 14.9272 8.17875C14.9272 7.91245 14.8215 7.65705 14.6332 7.46875C14.4449 7.28045 14.1895 7.17466 13.9232 7.17466C13.6569 7.17466 13.4015 7.28045 13.2132 7.46875L9.84316 10.8488L8.63316 9.62875C8.44485 9.44045 8.18946 9.33466 7.92316 9.33466C7.65686 9.33466 7.40146 9.44045 7.21316 9.62875C7.02485 9.81705 6.91906 10.0724 6.91906 10.3387C6.91906 10.6051 7.02485 10.8604 7.21316 11.0487L9.13316 12.9688ZM19.9232 0.21875H1.92316C1.65794 0.21875 1.40359 0.324107 1.21605 0.511643C1.02851 0.69918 0.923157 0.953534 0.923157 1.21875V19.2188C0.923157 19.484 1.02851 19.7383 1.21605 19.9259C1.40359 20.1134 1.65794 20.2188 1.92316 20.2188H19.9232C20.1884 20.2188 20.4427 20.1134 20.6303 19.9259C20.8178 19.7383 20.9232 19.484 20.9232 19.2188V1.21875C20.9232 0.953534 20.8178 0.69918 20.6303 0.511643C20.4427 0.324107 20.1884 0.21875 19.9232 0.21875ZM18.9232 18.2188H2.92316V2.21875H18.9232V18.2188Z" fill="#4ade80"/>
</svg>
