<svg width="56" height="56" viewBox="0 0 56 56" fill="none" xmlns="http://www.w3.org/2000/svg">
<path d="M28 0.5C12.82 0.5 0.5 12.82 0.5 28C0.5 43.18 12.82 55.5 28 55.5H41.75V50H28C16.065 50 6 39.935 6 28C6 16.065 16.065 6 28 6C39.935 6 50 16.065 50 28V31.9325C50 34.105 48.0475 36.25 45.875 36.25C43.7025 36.25 41.75 34.105 41.75 31.9325V28C41.75 20.41 35.59 14.25 28 14.25C20.41 14.25 14.25 20.41 14.25 28C14.25 35.59 20.41 41.75 28 41.75C31.795 41.75 35.26 40.21 37.735 37.7075C39.5225 40.155 42.6025 41.75 45.875 41.75C51.2925 41.75 55.5 37.35 55.5 31.9325V28C55.5 12.82 43.18 0.5 28 0.5ZM28 36.25C23.435 36.25 19.75 32.565 19.75 28C19.75 23.435 23.435 19.75 28 19.75C32.565 19.75 36.25 23.435 36.25 28C36.25 32.565 32.565 36.25 28 36.25Z" fill="#4ade80"/>
</svg>
