<svg width="200" height="184" viewBox="0 0 200 184" fill="none" xmlns="http://www.w3.org/2000/svg">
<circle cx="104.037" cy="95.6044" r="87.9629" fill="white"/>
<path d="M86.6385 102.09L70.0436 117.376C69.5257 116.459 69.2002 115.246 69.2002 113.943V74.7165" stroke="#4ade80" stroke-width="3" stroke-miterlimit="10" stroke-linecap="round" stroke-linejoin="round"/>
<path d="M143.096 74.6424V113.943C143.096 115.216 142.8 116.385 142.282 117.302L125.537 101.97" stroke="#4ade80" stroke-width="3" stroke-miterlimit="10" stroke-linecap="round" stroke-linejoin="round"/>
<path d="M70.1412 74.1087L70.0488 74.051" stroke="#4ade80" stroke-width="3" stroke-miterlimit="10" stroke-linecap="round" stroke-linejoin="round"/>
<path d="M92.7568 96.4533L99.3711 102.564C99.7262 102.89 100.081 103.171 100.437 103.408C104.032 106.071 108.22 106.071 111.801 103.393C112.141 103.156 112.496 102.86 112.822 102.564L119.48 96.4237" stroke="#4ade80" stroke-width="3" stroke-miterlimit="10" stroke-linecap="round" stroke-linejoin="round"/>
<path d="M124.015 100.576L142.283 117.302C141.662 118.442 140.7 119.182 139.634 119.182H72.663C71.6272 119.182 70.6802 118.486 70.0439 117.376L87.916 100.913" stroke="#4ade80" stroke-width="3" stroke-miterlimit="10" stroke-linecap="round" stroke-linejoin="round"/>
<path d="M143.097 74.6425L119.481 96.4237L112.822 102.564C112.496 102.86 112.141 103.156 111.801 103.393C108.22 106.071 104.033 106.071 100.437 103.408C100.082 103.171 99.7265 102.89 99.3714 102.564L92.7571 96.4533L69.2002 74.7165C69.2594 74.6277 69.3334 74.5241 69.4074 74.4205C70.0288 73.5327 70.8723 73 71.7897 73H140.566C141.439 73 142.283 73.5179 142.889 74.3465C142.964 74.4353 143.038 74.5389 143.097 74.6425Z" stroke="#4ade80" stroke-width="3" stroke-miterlimit="10" stroke-linecap="round" stroke-linejoin="round"/>
<path d="M167.26 154.665C165.947 149.768 168.861 144.722 173.758 143.41C178.655 142.098 183.701 145.011 185.013 149.908C186.326 154.805 183.412 159.851 178.515 161.164C173.618 162.476 168.572 159.562 167.26 154.665ZM183.159 150.405C182.121 146.532 178.131 144.236 174.267 145.271C170.403 146.307 168.098 150.299 169.133 154.163C170.169 158.027 174.161 160.332 178.025 159.297C181.889 158.261 184.194 154.269 183.159 150.405V150.405Z" fill="#4ade80"/>
<path d="M189.565 178.525C188.819 175.743 190.474 172.877 193.256 172.132C196.038 171.387 198.903 173.041 199.649 175.823C200.394 178.605 198.74 181.471 195.958 182.216C193.176 182.962 190.31 181.307 189.565 178.525ZM197.794 176.32C197.323 174.562 195.513 173.525 193.765 173.994C192.017 174.462 190.97 176.275 191.439 178.023C191.907 179.771 193.72 180.818 195.468 180.349C197.216 179.881 198.263 178.068 197.794 176.32Z" fill="#4ade80"/>
<path d="M32.9478 156.73C32.8831 156.488 32.9079 156.233 33.0422 156C33.3109 155.535 33.9001 155.377 34.3559 155.648L48.6119 163.879C49.0773 164.148 49.2352 164.737 48.9639 165.193C48.6952 165.658 48.106 165.816 47.6502 165.545L33.3942 157.314C33.1615 157.18 33.0099 156.961 32.9478 156.73Z" fill="#4ade80"/>
<path d="M35.9601 167.973C35.8954 167.732 35.9202 167.476 36.0546 167.244L44.2853 152.988C44.554 152.522 45.1432 152.364 45.599 152.636C46.0547 152.907 46.2222 153.494 45.951 153.949L37.7202 168.205C37.4515 168.671 36.8623 168.829 36.4066 168.557C36.1739 168.423 36.0222 168.205 35.9601 167.973V167.973Z" fill="#4ade80"/>
<path d="M27.8742 38.3379C26.6422 33.7401 29.3787 29.0004 33.9766 27.7684C38.5744 26.5364 43.3141 29.2729 44.5461 33.8707C45.7781 38.4685 43.0416 43.2083 38.4438 44.4403C33.846 45.6723 29.1062 42.9358 27.8742 38.3379ZM42.6819 34.3702C41.7242 30.7963 38.0403 28.6776 34.4761 29.6326C30.9118 30.5877 28.7834 34.2742 29.7385 37.8384C30.6935 41.4027 34.38 43.5311 37.9443 42.576C41.5085 41.621 43.6369 37.9345 42.6819 34.3702Z" fill="#4ade80"/>
<path d="M0.413095 7.48414C-0.36595 4.5767 1.36647 1.57608 4.2739 0.79703C7.18134 0.017985 10.182 1.7504 10.961 4.65784C11.74 7.56527 10.0076 10.5659 7.10021 11.3449C4.19277 12.124 1.19214 10.3916 0.413095 7.48414ZM9.09677 5.15735C8.59208 3.2738 6.65698 2.15657 4.77343 2.66127C2.88987 3.16596 1.77263 5.10106 2.27733 6.98462C2.78202 8.86818 4.71713 9.9854 6.60069 9.4807C8.48424 8.97601 9.60147 7.04091 9.09677 5.15735V5.15735Z" fill="#4ade80"/>
</svg>
