<svg width="200" height="184" viewBox="0 0 200 184" fill="none" xmlns="http://www.w3.org/2000/svg">
<circle cx="104.037" cy="95.7915" r="87.9629" fill="white"/>
<path d="M167.26 154.852C165.947 149.955 168.861 144.909 173.758 143.597C178.655 142.285 183.701 145.198 185.013 150.095C186.326 154.992 183.412 160.038 178.515 161.351C173.618 162.663 168.572 159.75 167.26 154.852ZM183.159 150.592C182.121 146.719 178.131 144.423 174.267 145.459C170.403 146.494 168.098 150.487 169.133 154.35C170.169 158.214 174.161 160.519 178.025 159.484C181.889 158.449 184.194 154.456 183.159 150.592V150.592Z" fill="#4ade80"/>
<path d="M189.565 178.712C188.819 175.93 190.474 173.065 193.256 172.319C196.038 171.574 198.903 173.228 199.649 176.01C200.394 178.792 198.74 181.658 195.958 182.403C193.176 183.149 190.31 181.494 189.565 178.712ZM197.794 176.507C197.323 174.749 195.513 173.712 193.765 174.181C192.017 174.649 190.97 176.462 191.439 178.21C191.907 179.959 193.72 181.005 195.468 180.537C197.216 180.068 198.263 178.255 197.794 176.507Z" fill="#4ade80"/>
<path d="M32.9478 156.917C32.8831 156.675 32.9079 156.42 33.0422 156.187C33.3109 155.722 33.9001 155.564 34.3559 155.835L48.6119 164.066C49.0773 164.335 49.2352 164.924 48.9639 165.38C48.6952 165.845 48.106 166.003 47.6502 165.732L33.3942 157.501C33.1615 157.367 33.0099 157.149 32.9478 156.917Z" fill="#4ade80"/>
<path d="M35.9601 168.16C35.8954 167.919 35.9202 167.664 36.0546 167.431L44.2853 153.175C44.554 152.709 45.1432 152.552 45.599 152.823C46.0547 153.094 46.2222 153.681 45.951 154.136L37.7202 168.393C37.4515 168.858 36.8623 169.016 36.4066 168.745C36.1739 168.61 36.0222 168.392 35.9601 168.16V168.16Z" fill="#4ade80"/>
<path d="M27.8742 38.5251C26.6422 33.9273 29.3787 29.1875 33.9766 27.9555C38.5744 26.7236 43.3141 29.4601 44.5461 34.0579C45.7781 38.6557 43.0416 43.3954 38.4438 44.6274C33.846 45.8594 29.1062 43.1229 27.8742 38.5251ZM42.6819 34.5574C41.7242 30.9835 38.0403 28.8647 34.4761 29.8198C30.9118 30.7748 28.7834 34.4613 29.7385 38.0256C30.6935 41.5898 34.38 43.7182 37.9443 42.7632C41.5085 41.8081 43.6369 38.1216 42.6819 34.5574Z" fill="#4ade80"/>
<path d="M0.413095 7.67127C-0.36595 4.76384 1.36647 1.76321 4.2739 0.984164C7.18134 0.205119 10.182 1.93753 10.961 4.84497C11.74 7.75241 10.0076 10.753 7.10021 11.5321C4.19277 12.3111 1.19214 10.5787 0.413095 7.67127ZM9.09677 5.34449C8.59208 3.46093 6.65698 2.3437 4.77343 2.8484C2.88987 3.3531 1.77263 5.2882 2.27733 7.17175C2.78202 9.05531 4.71713 10.1725 6.60069 9.66784C8.48424 9.16314 9.60147 7.22804 9.09677 5.34449V5.34449Z" fill="#4ade80"/>
<g clip-path="url(#clip0_0_1)">
<path d="M102.882 91.5415C110.062 91.5415 115.882 85.7212 115.882 78.5415C115.882 71.3618 110.062 65.5415 102.882 65.5415C95.7021 65.5415 89.8818 71.3618 89.8818 78.5415C89.8818 85.7212 95.7021 91.5415 102.882 91.5415Z" stroke="#4ade80" stroke-width="3" stroke-linecap="round" stroke-linejoin="round"/>
<path d="M79.272 116.902C79.272 107.842 86.612 100.502 95.672 100.502H112.422C121.482 100.502 128.822 107.842 128.822 116.902V122.802C128.822 124.592 127.372 126.042 125.582 126.042H82.492C80.692 126.042 79.242 124.582 79.252 122.792L79.272 116.902Z" stroke="#4ade80" stroke-width="3" stroke-linecap="round" stroke-linejoin="round"/>
</g>
<defs>
<clipPath id="clip0_0_1">
<rect width="52.57" height="63.5" fill="white" transform="translate(77.752 64.0415)"/>
</clipPath>
</defs>
</svg>
