<svg width="200" height="184" viewBox="0 0 200 184" fill="none" xmlns="http://www.w3.org/2000/svg">
<circle cx="104.037" cy="95.6044" r="87.9629" fill="white"/>
<path d="M167.26 154.665C165.947 149.768 168.861 144.722 173.758 143.41C178.655 142.098 183.701 145.011 185.013 149.908C186.326 154.805 183.412 159.851 178.515 161.164C173.618 162.476 168.572 159.562 167.26 154.665ZM183.159 150.405C182.121 146.532 178.131 144.236 174.267 145.271C170.403 146.307 168.098 150.299 169.133 154.163C170.169 158.027 174.161 160.332 178.025 159.297C181.889 158.261 184.194 154.269 183.159 150.405Z" fill="#4ade80"/>
<path d="M32.9478 156.73C32.8831 156.488 32.9079 156.233 33.0422 156C33.3109 155.535 33.9001 155.377 34.3559 155.648L48.6119 163.879C49.0773 164.148 49.2352 164.737 48.9639 165.193C48.6952 165.658 48.106 165.816 47.6502 165.545L33.3942 157.314C33.1615 157.18 33.0099 156.961 32.9478 156.73Z" fill="#4ade80"/>
<path d="M35.9606 167.973C35.8959 167.732 35.9207 167.476 36.0551 167.244L44.2858 152.988C44.5545 152.522 45.1437 152.364 45.5994 152.636C46.0552 152.907 46.2227 153.494 45.9514 153.949L37.7207 168.205C37.452 168.671 36.8628 168.829 36.4071 168.557C36.1744 168.423 36.0227 168.205 35.9606 167.973Z" fill="#4ade80"/>
<path d="M27.8742 38.3379C26.6422 33.7401 29.3787 29.0004 33.9766 27.7684C38.5744 26.5364 43.3141 29.2729 44.5461 33.8707C45.7781 38.4685 43.0416 43.2083 38.4438 44.4403C33.846 45.6723 29.1062 42.9358 27.8742 38.3379ZM42.6819 34.3702C41.7242 30.7963 38.0403 28.6776 34.4761 29.6326C30.9118 30.5877 28.7834 34.2742 29.7385 37.8384C30.6935 41.4027 34.38 43.5311 37.9443 42.576C41.5085 41.621 43.6369 37.9345 42.6819 34.3702Z" fill="#4ade80"/>
<path d="M0.413095 7.48414C-0.36595 4.5767 1.36647 1.57608 4.2739 0.79703C7.18134 0.017985 10.182 1.7504 10.961 4.65784C11.74 7.56527 10.0076 10.5659 7.10021 11.3449C4.19277 12.124 1.19214 10.3916 0.413095 7.48414ZM9.09677 5.15735C8.59208 3.2738 6.65698 2.15657 4.77343 2.66127C2.88987 3.16596 1.77263 5.10106 2.27733 6.98462C2.78202 8.86818 4.71713 9.9854 6.60069 9.4807C8.48424 8.97601 9.60147 7.04091 9.09677 5.15735Z" fill="#4ade80"/>
<path d="M89.0002 122.583C90.4729 122.583 91.6668 121.371 91.6668 119.875C91.6668 118.379 90.4729 117.167 89.0002 117.167C87.5274 117.167 86.3335 118.379 86.3335 119.875C86.3335 121.371 87.5274 122.583 89.0002 122.583Z" stroke="#4ade80" stroke-width="3" stroke-linecap="round" stroke-linejoin="round"/>
<path d="M118.333 122.583C119.806 122.583 121 121.371 121 119.875C121 118.379 119.806 117.167 118.333 117.167C116.86 117.167 115.667 118.379 115.667 119.875C115.667 121.371 116.86 122.583 118.333 122.583Z" stroke="#4ade80" stroke-width="3" stroke-linecap="round" stroke-linejoin="round"/>
<path d="M67.6665 65.7083H78.3332L85.4798 101.973C85.7237 103.22 86.3916 104.34 87.3666 105.137C88.3417 105.934 89.5617 106.358 90.8132 106.333H116.733C117.985 106.358 119.205 105.934 120.18 105.137C121.155 104.34 121.823 103.22 122.067 101.973L126.333 79.25H80.9998" stroke="#4ade80" stroke-width="3" stroke-linecap="round" stroke-linejoin="round"/>
<path d="M189.565 178.525C188.819 175.743 190.474 172.877 193.256 172.132C196.038 171.387 198.903 173.041 199.649 175.823C200.394 178.605 198.74 181.471 195.958 182.216C193.176 182.962 190.31 181.307 189.565 178.525ZM197.794 176.32C197.323 174.562 195.513 173.525 193.765 173.994C192.017 174.462 190.97 176.275 191.439 178.023C191.907 179.771 193.72 180.818 195.468 180.349C197.216 179.881 198.263 178.068 197.794 176.32Z" fill="#4ade80"/>
</svg>
