<svg width="49" height="33" viewBox="0 0 49 33" fill="none" xmlns="http://www.w3.org/2000/svg">
<path d="M45.6749 16.6714H2.48138V30.7211H45.6749V16.6714Z" fill="#404042"/>
<path d="M10.0961 24.4895L8.78091 25.8329V27.9497H7.25119V19.6802H8.78091V23.9194L12.8733 19.6802H14.595L11.1235 23.3775L14.8095 27.9497H13.0145L10.0961 24.4895Z" fill="white"/>
<path d="M21.5211 21.6387V27.9495H20.1155V27.1479C19.6414 27.7293 18.8963 28.0342 18.0834 28.0342C16.4634 28.0342 15.3683 27.1479 15.3683 25.2457V21.6443H16.8472V25.0481C16.8472 26.194 17.3891 26.7359 18.3262 26.7359C19.3535 26.7359 20.0534 26.098 20.0534 24.8336V21.6443H21.5211V21.6387Z" fill="white"/>
<path d="M26.7763 21.5708V22.9763C26.6465 22.9538 26.5392 22.9425 26.432 22.9425C25.3087 22.9425 24.6031 23.6029 24.6031 24.8899V27.9494H23.1298V21.6385H24.5297V22.5586C24.9531 21.8982 25.7208 21.5708 26.7763 21.5708Z" fill="white"/>
<path d="M27.9504 19.7139C27.9504 19.2171 28.3512 18.8276 28.8931 18.8276C29.435 18.8276 29.8358 19.1945 29.8358 19.68C29.8358 20.1993 29.4463 20.6001 28.8931 20.6001C28.3512 20.6001 27.9504 20.2106 27.9504 19.7139ZM28.148 21.6387H29.6269V27.9495H28.148V21.6387Z" fill="white"/>
<path d="M37.2021 25.2681H32.2517C32.4267 26.1882 33.1944 26.7809 34.2951 26.7809C35.0063 26.7809 35.5595 26.5551 36.0111 26.0979L36.8014 27.0067C36.2369 27.6784 35.3507 28.034 34.2612 28.034C32.1445 28.034 30.7784 26.6736 30.7784 24.7939C30.7784 22.9142 32.1614 21.5708 34.0411 21.5708C35.8813 21.5708 37.2304 22.8578 37.2304 24.8335C37.2247 24.9464 37.2134 25.127 37.2021 25.2681ZM32.2404 24.2859H35.8192C35.7007 23.3771 35.0063 22.7506 34.0355 22.7506C33.0758 22.7506 32.3815 23.3658 32.2404 24.2859Z" fill="white"/>
<path d="M42.0115 21.5708V22.9763C41.8816 22.9538 41.7744 22.9425 41.6671 22.9425C40.5438 22.9425 39.8382 23.6029 39.8382 24.8899V27.9494H38.365V21.6385H39.7705V22.5586C40.1939 21.8982 40.9615 21.5708 42.0115 21.5708Z" fill="white"/>
<path d="M40.4479 2.62158H2.48138V16.6713H40.4479V2.62158Z" fill="#FECA09"/>
<path d="M14.2507 13.9337H12.879V9.97675C12.879 9.14698 12.5121 8.6954 11.846 8.64459C11.4339 8.61072 10.7735 8.71233 10.2993 8.81958V13.9337H8.92767V7.8374C8.92767 7.8374 10.5985 7.46484 12.1057 7.46484C12.7604 7.46484 13.2798 7.70192 13.6693 8.09141C14.0587 8.4809 14.2563 9.02844 14.2563 9.72838V13.9337H14.2507Z" fill="#404042"/>
<path d="M37.411 13.9734C37.1852 14.0298 36.9538 14.0581 36.7111 14.0581C35.9377 14.0581 35.4241 13.8831 35.1757 13.5387C34.9781 13.2678 34.8765 12.7541 34.8765 11.9977V5.65869H36.2313V7.44807H37.4336V8.56008H36.2313V11.9131C36.2313 12.2743 36.2764 12.517 36.3667 12.6299C36.474 12.7767 36.7054 12.8501 37.061 12.8501C37.1626 12.8501 37.2755 12.8388 37.411 12.8219V13.9734Z" fill="#404042"/>
<path d="M7.56165 5.65283H6.16176V13.928H7.56165V5.65283Z" fill="#404042"/>
<path d="M20.2002 8.48096C20.2002 7.4762 19.7091 6.97946 18.7326 6.97946H17.0053V9.96553H18.71C19.1785 9.96553 19.5454 9.8357 19.8051 9.57604C20.0704 9.31074 20.2002 8.94948 20.2002 8.48096ZM21.617 8.48096C21.617 9.32767 21.3517 10.005 20.8324 10.5244C20.3075 11.038 19.6019 11.292 18.7044 11.292H17.0053V13.9056H15.6054V5.63037H18.6027C19.5736 5.63037 20.3187 5.88438 20.8381 6.38677C21.3574 6.89479 21.617 7.58909 21.617 8.48096Z" fill="#404042"/>
<path d="M26.6804 10.6543C26.6804 10.0334 26.5336 9.53662 26.2457 9.17536C25.9578 8.80845 25.574 8.62782 25.0942 8.62782C24.6144 8.62782 24.2362 8.8141 23.9427 9.181C23.6548 9.55356 23.5137 10.039 23.5137 10.6543C23.5137 11.2752 23.6548 11.7719 23.9427 12.1388C24.2305 12.5058 24.6144 12.6864 25.0942 12.6864C25.574 12.6864 25.9522 12.5058 26.2457 12.1388C26.5336 11.7719 26.6804 11.2752 26.6804 10.6543ZM28.0972 10.6486C28.0972 11.6421 27.8206 12.4437 27.2618 13.0533C26.7029 13.6629 25.9861 13.9621 25.0998 13.9621C24.2136 13.9621 23.4911 13.6573 22.9379 13.0533C22.3791 12.4437 22.1025 11.6421 22.1025 10.6486C22.1025 9.65516 22.3791 8.85361 22.9379 8.24962C23.4967 7.64564 24.2193 7.34082 25.0998 7.34082C25.9973 7.34082 26.7199 7.64564 27.2731 8.24962C27.8206 8.85361 28.0972 9.64952 28.0972 10.6486Z" fill="#404042"/>
<path d="M34.0637 11.7941C34.0637 12.4207 33.8209 12.9344 33.3355 13.3351C32.8501 13.7416 32.2122 13.9391 31.4163 13.9391C30.1801 13.9391 29.2205 13.5722 28.5431 12.8328L29.5874 11.9578C30.1067 12.4658 30.7107 12.7199 31.405 12.7199C31.7888 12.7199 32.0937 12.6465 32.3194 12.4941C32.5452 12.3417 32.6581 12.1497 32.6581 11.9183C32.6581 11.653 32.5283 11.4724 32.2686 11.3764C32.1162 11.32 31.7155 11.2409 31.0607 11.1393C30.2761 11.0264 29.7116 10.8515 29.3785 10.62C28.9834 10.3434 28.7915 9.92007 28.7915 9.36124C28.7915 8.79677 29.0286 8.32261 29.5084 7.93877C29.9882 7.56057 30.6204 7.36865 31.4163 7.36865C32.3759 7.36865 33.2 7.68476 33.8717 8.31697L33.0589 9.18061C32.5622 8.74597 32.0033 8.52582 31.3768 8.52582C30.5752 8.52582 30.1744 8.75161 30.1744 9.20319C30.1744 9.46849 30.3607 9.64348 30.7276 9.74509C31.2469 9.82976 31.7606 9.91443 32.2743 10.0047C33.4653 10.2249 34.0637 10.8232 34.0637 11.7941Z" fill="#404042"/>
</svg>
