<svg width="109" height="33" viewBox="0 0 109 33" fill="none" xmlns="http://www.w3.org/2000/svg">
<path d="M39.9483 2.87012H1.98184V16.9199H39.9483V2.87012Z" fill="#FECA09"/>
<path d="M13.7511 14.182H12.3794V10.225C12.3794 9.39524 12.0125 8.94366 11.3465 8.89285C10.9344 8.85899 10.274 8.96059 9.7998 9.06784V14.182H8.42813V8.0913C8.42813 8.0913 10.099 7.71875 11.6061 7.71875C12.2609 7.71875 12.7802 7.95583 13.1697 8.34532C13.5592 8.7348 13.7568 9.28234 13.7568 9.98229V14.182H13.7511Z" fill="#404042"/>
<path d="M36.9115 14.2216C36.6857 14.2781 36.4542 14.3063 36.2115 14.3063C35.4382 14.3063 34.9245 14.1313 34.6762 13.787C34.4786 13.5161 34.377 13.0024 34.377 12.246V5.9126H35.7317V7.70198H36.9341V8.81399H35.7317V12.167C35.7317 12.5282 35.7769 12.771 35.8672 12.8838C35.9744 13.0306 36.2059 13.104 36.5615 13.104C36.6631 13.104 36.776 13.0927 36.9115 13.0758V14.2216Z" fill="#404042"/>
<path d="M7.06774 5.90723H5.66785V14.1824H7.06774V5.90723Z" fill="#404042"/>
<path d="M19.7063 8.7295C19.7063 7.72473 19.2152 7.228 18.2387 7.228H16.5114V10.2141H18.2161C18.6846 10.2141 19.0515 10.0842 19.3112 9.82458C19.5708 9.55927 19.7063 9.19801 19.7063 8.7295ZM21.1175 8.7295C21.1175 9.57621 20.8522 10.2536 20.3329 10.7729C19.8079 11.2866 19.1023 11.5406 18.2048 11.5406H16.5057V14.1541H15.1058V5.87891H18.1032C19.0741 5.87891 19.8192 6.13292 20.3385 6.6353C20.8578 7.14333 21.1175 7.84327 21.1175 8.7295Z" fill="#404042"/>
<path d="M26.1865 10.9028C26.1865 10.2819 26.0397 9.78516 25.7518 9.42389C25.4639 9.05699 25.0801 8.87635 24.6003 8.87635C24.1205 8.87635 23.7423 9.06263 23.4488 9.42954C23.1609 9.80209 23.0198 10.2875 23.0198 10.9028C23.0198 11.5237 23.1609 12.0205 23.4488 12.3874C23.7366 12.7543 24.1205 12.9349 24.6003 12.9349C25.0801 12.9349 25.4583 12.7543 25.7518 12.3874C26.0397 12.0205 26.1865 11.5237 26.1865 10.9028ZM27.6033 10.8972C27.6033 11.8906 27.3267 12.6922 26.7679 13.3018C26.209 13.9115 25.4922 14.2106 24.6059 14.2106C23.7197 14.2106 22.9972 13.9058 22.444 13.3018C21.8852 12.6922 21.6086 11.8906 21.6086 10.8972C21.6086 9.9037 21.8852 9.10214 22.444 8.49816C23.0028 7.89417 23.7254 7.58936 24.6059 7.58936C25.5034 7.58936 26.226 7.89417 26.7792 8.49816C27.3267 9.10214 27.6033 9.9037 27.6033 10.8972Z" fill="#404042"/>
<path d="M33.5641 12.0427C33.5641 12.6692 33.3214 13.1829 32.836 13.5837C32.3505 13.9901 31.7127 14.1877 30.9167 14.1877C29.6806 14.1877 28.7209 13.8208 28.0436 13.0813L29.0879 12.2064C29.6072 12.7144 30.2112 12.9684 30.9055 12.9684C31.2893 12.9684 31.5941 12.895 31.8199 12.7426C32.0457 12.5902 32.1586 12.3983 32.1586 12.1668C32.1586 11.9015 32.0288 11.7209 31.7691 11.6249C31.6167 11.5685 31.2159 11.4895 30.5611 11.3879C29.7765 11.275 29.212 11.1 28.879 10.8686C28.4839 10.592 28.2919 10.1686 28.2919 9.60978C28.2919 9.04531 28.529 8.57115 29.0088 8.18731C29.4886 7.80911 30.1208 7.61719 30.9167 7.61719C31.8764 7.61719 32.7005 7.93329 33.3722 8.5655L32.5594 9.42915C32.0626 8.9945 31.5038 8.77436 30.8772 8.77436C30.0757 8.77436 29.6749 9.00015 29.6749 9.45173C29.6749 9.71703 29.8612 9.89202 30.2281 9.99362C30.7474 10.0783 31.2611 10.163 31.7747 10.2533C32.9658 10.4791 33.5641 11.0718 33.5641 12.0427Z" fill="#404042"/>
<path d="M106.438 16.9595H1.98184V31.0092H106.438V16.9595Z" fill="#404042"/>
<path d="M12.2778 22.796C12.2778 24.512 11.0078 25.5675 8.95874 25.5675H7.20323V27.8141H5.75253V20.0244H8.95874C11.0078 20.0244 12.2778 21.0687 12.2778 22.796ZM10.8215 22.796C10.8215 21.8138 10.1667 21.2493 8.89665 21.2493H7.20323V24.3426H8.89665C10.1611 24.3426 10.8215 23.7782 10.8215 22.796Z" fill="white"/>
<path d="M18.5096 24.3314V27.8142H17.1944V27.0916C16.8614 27.6053 16.2122 27.8932 15.326 27.8932C13.9656 27.8932 13.1133 27.1481 13.1133 26.1095C13.1133 25.116 13.7793 24.337 15.5856 24.337H17.121V24.2467C17.121 23.4338 16.6299 22.954 15.6421 22.954C14.976 22.954 14.2817 23.1798 13.8358 23.5411L13.2882 22.5307C13.9204 22.0396 14.8462 21.7969 15.8058 21.7969C17.5161 21.8025 18.5096 22.621 18.5096 24.3314ZM17.121 25.957V25.2684H15.6872C14.7389 25.2684 14.4849 25.624 14.4849 26.0586C14.4849 26.561 14.9083 26.8828 15.6195 26.8828C16.2969 26.8828 16.8839 26.5723 17.121 25.957Z" fill="white"/>
<path d="M19.8531 24.845C19.8531 23.0612 21.1909 21.8081 23.0706 21.8081C24.2278 21.8081 25.1535 22.2879 25.6107 23.1854L24.5439 23.812C24.1882 23.2419 23.652 22.9879 23.0649 22.9879C22.0376 22.9879 21.2586 23.6991 21.2586 24.845C21.2586 26.0021 22.0376 26.7021 23.0649 26.7021C23.652 26.7021 24.1882 26.4481 24.5439 25.878L25.6107 26.4989C25.1535 27.3907 24.2278 27.8931 23.0706 27.8931C21.1909 27.8931 19.8531 26.6231 19.8531 24.845Z" fill="white"/>
<path d="M31.3966 26.7025V27.8145H26.2655V26.9396L29.5282 22.9826H26.3332V21.8706H31.3063V22.7512L28.0379 26.7025H31.3966Z" fill="white"/>
<path d="M35.1052 25.2686L34.0665 26.2452V27.8144H32.6779V19.5562H34.0665V24.5461L36.951 21.8705H38.6218L36.1381 24.3655L38.8533 27.8144H37.1655L35.1052 25.2686Z" fill="white"/>
<path d="M39.0226 24.845C39.0226 23.0612 40.3604 21.8081 42.1836 21.8081C44.0295 21.8081 45.356 23.0669 45.356 24.845C45.356 26.6231 44.0295 27.8931 42.1836 27.8931C40.3547 27.8931 39.0226 26.6231 39.0226 24.845ZM43.9504 24.845C43.9504 23.7104 43.194 22.9879 42.1836 22.9879C41.1845 22.9879 40.4225 23.7104 40.4225 24.845C40.4225 25.9796 41.1789 26.7021 42.1836 26.7021C43.194 26.7021 43.9504 25.9796 43.9504 24.845Z" fill="white"/>
<path d="M56.6285 24.4106V27.82H55.2399V24.5912C55.2399 23.5357 54.7488 23.022 53.9021 23.022C52.9877 23.022 52.3555 23.626 52.3555 24.8057V27.8257H50.9612V24.5969C50.9612 23.5413 50.4701 23.0276 49.6234 23.0276C48.6977 23.0276 48.0767 23.6316 48.0767 24.8114V27.8313H46.6825V21.8705H48.009V22.6269C48.4549 22.0906 49.1436 21.8027 49.9564 21.8027C50.8257 21.8027 51.5483 22.1245 51.9603 22.7962C52.4401 22.1809 53.2417 21.8027 54.19 21.8027C55.6294 21.8027 56.6285 22.6212 56.6285 24.4106Z" fill="white"/>
<path d="M63.3853 24.3314V27.8142H62.07V27.0916C61.737 27.6053 61.0879 27.8932 60.2016 27.8932C58.8412 27.8932 57.9889 27.1481 57.9889 26.1095C57.9889 25.116 58.655 24.337 60.4613 24.337H61.9967V24.2467C61.9967 23.4338 61.5056 22.954 60.5177 22.954C59.8517 22.954 59.1574 23.1798 58.7114 23.5411L58.1639 22.5307C58.7961 22.0396 59.7218 21.7969 60.6814 21.7969C62.3918 21.8025 63.3853 22.621 63.3853 24.3314ZM61.991 25.957V25.2684H60.5572C59.6089 25.2684 59.3549 25.624 59.3549 26.0586C59.3549 26.561 59.7783 26.8828 60.4895 26.8828C61.1669 26.8828 61.7596 26.5723 61.991 25.957Z" fill="white"/>
<path d="M68.7365 27.4926C68.4034 27.7579 67.9011 27.8933 67.3987 27.8933C66.0948 27.8933 65.3496 27.2047 65.3496 25.8895V23.0276H64.3675V21.9156H65.3496V20.5552H66.7439V21.9156H68.3357V23.0276H66.7439V25.8556C66.7439 26.437 67.0318 26.7475 67.568 26.7475C67.8559 26.7475 68.1381 26.6684 68.347 26.5047L68.7365 27.4926Z" fill="white"/>
<path d="M75.3352 21.8706L72.5523 28.2943C72.0048 29.6434 71.2484 30.0555 70.2605 30.0555C69.6735 30.0555 69.0469 29.8579 68.6687 29.5079L69.2219 28.4806C69.4872 28.7346 69.8654 28.8927 70.2493 28.8927C70.7403 28.8927 71.0282 28.6612 71.2935 28.0685L71.3951 27.8371L68.7986 21.8706H70.2436L72.112 26.2679L73.9917 21.8706H75.3352Z" fill="white"/>
<path d="M84.4966 26.595V27.8199H78.7503V26.849L81.8436 23.9081C82.6 23.1856 82.7354 22.7283 82.7354 22.2937C82.7354 21.5825 82.2443 21.1704 81.2904 21.1704C80.534 21.1704 79.8961 21.4244 79.4671 21.9832L78.4567 21.2043C79.0551 20.3914 80.1389 19.9116 81.4202 19.9116C83.1136 19.9116 84.2031 20.7696 84.2031 22.1469C84.2031 22.9033 83.9942 23.592 82.9104 24.608L80.8275 26.5893H84.4966V26.595Z" fill="white"/>
<path d="M92.1057 26.0473H90.7283V27.8141H89.3228V26.0473H85.0497V25.0426L88.8938 20.0244H90.4405L86.8222 24.8224H89.368V23.2532H90.7283V24.8224H92.1057V26.0473Z" fill="white"/>
<path d="M95.8481 18.4438H97.0956L93.4209 28.9318H92.1734L95.8481 18.4438Z" fill="white"/>
<path d="M103.113 20.0244V20.9897L100.087 27.8198H98.5407L101.465 21.2493H98.4052V22.5758H97.0561V20.0244H103.113Z" fill="white"/>
</svg>
