<svg width="202" height="31" viewBox="0 0 202 31" fill="none" xmlns="http://www.w3.org/2000/svg">
<g clip-path="url(#clip0_77_2849)">
<path fill-rule="evenodd" clip-rule="evenodd" d="M118.875 30.2892C109.285 30.6521 103.311 22.2759 103.413 15.4208C103.537 6.96296 110.248 0.3225 118.866 0.340644C127.484 0.358787 134.309 7.06275 134.266 15.4813C134.232 22.2487 128.651 30.5553 118.872 30.2923L118.875 30.2892ZM118.835 27.8913C125.833 27.9004 131.516 22.288 131.559 15.4117C131.599 8.85289 126.069 2.95933 118.869 2.92909C112.254 2.90188 106.21 8.35395 106.197 15.3966C106.185 22.7114 112.716 28.2723 118.835 27.8913Z" fill="#1A1A18"/>
<path fill-rule="evenodd" clip-rule="evenodd" d="M166.649 30.2862C157.319 30.643 151.057 22.1005 151.327 15.1728C151.649 6.90853 158.173 0.349716 166.692 0.349716C175.391 0.349716 182.139 6.90853 182.139 15.3694C182.139 19.5091 180.649 23.1408 177.667 26.0044C174.67 28.8831 171.062 30.6793 166.649 30.2862ZM166.801 27.8883C173.809 27.8883 179.398 22.288 179.491 15.3784C179.578 8.97687 174.007 2.80511 166.77 2.96236C159.527 3.1196 154.179 8.27533 154.191 15.4299C154.204 22.5209 159.641 27.8943 166.804 27.8883H166.801Z" fill="#1A1A18"/>
<path fill-rule="evenodd" clip-rule="evenodd" d="M201.387 29.2611C199.687 31.4988 199.018 29.2944 198.349 28.4568C195.677 25.1123 193.165 21.6439 190.536 18.2602C190.168 17.7855 189.493 17.5375 188.957 17.1837C188.771 17.7885 188.427 18.3933 188.427 18.995C188.434 21.9494 188.567 24.9007 188.585 27.855C188.598 29.8387 188.047 30.3407 186.086 30.1774C186.006 29.4667 185.848 28.7168 185.845 27.9699C185.829 19.7812 185.845 11.5956 185.845 3.40687C185.845 1.21456 186.216 0.809354 188.412 0.960549C190.354 1.0936 192.342 1.15408 194.218 1.60766C198.058 2.53902 200.446 6.03463 200.127 9.92336C199.839 13.419 198.21 16.0135 194.726 17.2714C193.667 17.6554 193.37 18.2028 194.147 19.1099C196.389 21.7347 198.619 24.3685 200.882 26.9751C202.065 28.3146 202.428 27.8974 201.387 29.2611ZM188.536 9.71471H188.461C188.461 10.8547 188.471 11.9947 188.461 13.1347C188.437 15.8986 188.78 16.1889 191.592 15.7413C194.59 15.2666 196.562 13.6518 196.971 11.1964C197.832 6.04068 195.135 3.7516 190.22 3.44014C189.099 3.37059 188.554 3.98746 188.542 5.04885C188.526 6.60312 188.539 8.1574 188.539 9.70866L188.536 9.71471Z" fill="#1A1A18"/>
<path fill-rule="evenodd" clip-rule="evenodd" d="M39.1299 30.259C37.7612 30.2953 37.0056 28.7531 37.6032 27.6433C40.4088 22.4271 43.2671 17.2411 46.0665 12.0219C47.7108 8.95267 49.2716 5.84412 50.8818 2.75975C51.1203 2.30314 51.3711 1.82839 51.721 1.45343C52.3713 0.751887 52.9566 0.767006 53.4273 1.70441C57.4995 9.76307 61.584 17.8157 65.6747 25.8653C65.9813 26.464 66.3931 27.0144 66.7307 27.601C67.3841 28.744 66.5046 29.4335 65.845 30.138C65.7676 30.2227 65.0492 29.9687 64.9036 29.7207C63.6804 27.6191 62.4851 25.4964 61.3455 23.3494C58.2612 17.5375 59.9087 18.3358 53.449 18.3177C51.6994 18.3146 49.9312 18.4507 48.2001 18.2602C46.0851 18.0274 45.1468 19.125 44.3478 20.7579C42.9791 23.5581 41.5051 26.3068 40.0403 29.0615C39.7771 29.5544 39.356 29.9657 39.1299 30.259ZM52.3249 15.832V15.8864C53.4862 15.8864 54.6505 15.9197 55.8118 15.8774C57.1495 15.829 57.3818 15.3905 56.7748 14.2082C55.6445 11.9977 54.5359 9.77215 53.3685 7.57983C53.1517 7.17463 52.7213 6.70895 52.3187 6.6273C52.0338 6.57287 51.4857 7.05669 51.2937 7.41956C50.0581 9.754 48.8907 12.1217 47.6984 14.4773C47.2556 15.3512 47.652 15.7806 48.5222 15.8169C49.7887 15.8683 51.0583 15.832 52.3249 15.832Z" fill="#1A1A18"/>
<path fill-rule="evenodd" clip-rule="evenodd" d="M85.3766 30.1108C85.3023 29.3004 85.1598 28.487 85.1598 27.6705C85.1443 19.4849 85.1505 11.2992 85.1567 3.11657C85.1567 2.7537 85.0452 2.29105 85.2279 2.04914C85.6584 1.48972 86.1724 0.721648 86.7639 0.615812C87.8013 0.428331 87.9995 1.33852 87.9871 2.18521C87.9345 5.29377 87.8477 8.3993 87.8385 11.5079C87.8385 12.0733 88.1357 12.6388 88.2968 13.2043C88.8263 12.8656 89.4673 12.6207 89.8668 12.1701C92.9201 8.72588 95.927 5.24236 98.9525 1.77396C99.1228 1.57741 99.2931 1.28712 99.5099 1.23571C100.21 1.07242 100.931 1.00287 101.643 0.900058C101.594 1.59555 101.811 2.50272 101.445 2.95025C99.8877 4.84623 98.1597 6.60614 96.4906 8.4114C95.0692 9.94753 93.6633 11.4988 92.2017 13.0017C91.3346 13.8967 91.3811 14.7132 92.1676 15.5962C95.5337 19.3942 98.9029 23.1861 102.238 27.0053C102.659 27.4861 103.158 28.1362 103.13 28.6866C103.105 29.2278 102.548 29.8689 102.04 30.2015C101.854 30.3225 101.03 29.7631 100.69 29.3639C96.9334 24.946 93.2205 20.4918 89.4735 16.0649C89.232 15.7776 88.817 15.6294 88.4857 15.4177C88.2565 15.8955 87.8323 16.3733 87.8292 16.8511C87.8261 20.2681 87.9128 23.6881 87.9561 27.1051C87.9623 27.6736 87.9716 28.2511 87.8756 28.8075C87.6619 30.0352 86.9621 30.6067 85.3766 30.1048V30.1108Z" fill="#1A1A18"/>
<path fill-rule="evenodd" clip-rule="evenodd" d="M71.9831 16.8481C71.9831 13.171 71.9862 9.49094 71.9831 5.81389C71.98 3.71229 71.7199 3.47642 69.6142 3.55504C68.2361 3.60645 66.8488 3.73648 65.4832 3.62157C64.966 3.57923 64.0587 2.89281 64.099 2.60252C64.1795 2.02496 64.6997 1.39296 65.22 1.02707C65.5823 0.770042 66.245 0.884949 66.7714 0.884949C71.1191 0.884949 75.47 0.897045 79.8177 0.906117C80.0283 0.906117 80.242 0.900069 80.4526 0.921236C81.3537 1.01498 82.3353 1.28108 82.1217 2.31827C82.0164 2.82931 81.0967 3.44014 80.4711 3.53388C79.282 3.71531 78.0402 3.57016 76.8201 3.53992C74.9559 3.49457 74.5998 3.80603 74.606 5.67781C74.6277 12.8263 74.6803 19.9778 74.6834 27.1263C74.6834 27.9306 74.5565 28.7833 74.253 29.5212C74.1043 29.8871 73.4138 30.2378 72.9802 30.2227C72.652 30.2106 72.1968 29.6603 72.0605 29.2641C71.8809 28.744 71.9274 28.1393 71.9274 27.5738C71.9181 23.9996 71.9243 20.4223 71.9243 16.8481H71.9893H71.9831Z" fill="#1A1A18"/>
<path fill-rule="evenodd" clip-rule="evenodd" d="M147.998 29.6663C145.449 29.6663 142.901 29.6331 140.352 29.6784C138.652 29.7087 138.141 29.3337 138.132 27.6585C138.082 19.3791 138.057 11.0966 138.033 2.81721C138.033 2.40899 137.98 1.87679 138.206 1.61975C138.578 1.19641 139.172 0.691421 139.649 0.712588C140.086 0.733756 140.693 1.33853 140.86 1.80724C141.074 2.40899 140.931 3.13472 140.928 3.80603C140.872 10.897 140.807 17.9881 140.764 25.0761C140.752 26.9539 141.179 27.3137 143.133 27.2684C144.935 27.226 146.737 27.1898 148.54 27.1777C149.41 27.1746 150.472 26.9448 150.624 28.2421C150.692 28.8317 149.723 29.6693 148.001 29.6663H147.998Z" fill="#1A1A18"/>
<path fill-rule="evenodd" clip-rule="evenodd" d="M20.4373 0.993789C21.8649 1.34154 23.1283 2.05215 24.333 2.84743C26.0176 3.96022 27.4018 5.37843 28.5042 7.04459C29.4115 8.41139 30.1702 9.85681 30.4954 11.4685C30.7245 12.6085 30.8453 13.7727 31.0094 14.9248C31.0682 15.3391 30.9413 15.6566 30.5635 15.9258C28.6776 17.2593 26.7143 18.4265 24.528 19.2551C21.0412 20.5735 17.449 20.8547 13.7856 20.4041C11.9462 20.1773 10.1811 19.6179 8.46553 18.8982C5.67851 17.731 3.30025 16.0286 1.22547 13.8937C0.928192 13.5853 0.63091 13.2738 0.373885 12.9351C0.265501 12.79 0.203567 12.5571 0.234534 12.3818C0.268598 12.1882 0.432722 12.0189 0.541106 11.8375C0.708327 11.9614 0.912708 12.0552 1.03348 12.2094C2.43938 14.0479 4.08372 15.6445 6.13372 16.7724C7.48388 17.5163 8.88049 18.2239 10.3359 18.7319C12.5005 19.4879 14.7735 19.7812 17.0867 19.7419C19.0314 19.7086 20.9235 19.376 22.7567 18.8015C24.1998 18.3479 25.5995 17.7552 26.8568 16.8964C27.1386 16.7029 27.4513 16.5547 27.7145 16.343C27.8291 16.2523 27.8477 16.0497 27.9096 15.8955C27.7362 15.8713 27.5256 15.7746 27.3987 15.8381C26.4821 16.2977 25.6088 16.845 24.6736 17.2563C23.8096 17.6342 22.8992 17.9366 21.9826 18.1725C18.7156 19.0131 15.4176 19.0555 12.1537 18.2088C7.5613 17.0144 3.89791 14.4622 1.11399 10.7065C1.0149 10.5735 0.915805 10.3981 0.921999 10.2499C0.931289 10.0503 1.04896 9.85681 1.12019 9.66025C1.27192 9.77214 1.47321 9.85076 1.56611 9.9959C3.55418 13.0863 6.3381 15.2696 9.76304 16.6273C12.7947 17.8278 15.9564 18.3691 19.2327 17.7401C20.1462 17.5647 21.0629 17.3863 21.964 17.1655C22.2117 17.1051 22.4347 16.9025 22.636 16.7271C22.7072 16.6666 22.6731 16.4912 22.6886 16.3703C22.5616 16.3582 22.4254 16.3098 22.3077 16.34C21.5428 16.5275 20.7934 16.8118 20.0193 16.9146C18.1767 17.1535 16.3156 17.229 14.4669 16.9599C11.203 16.4821 8.28902 15.2212 5.77141 13.1256C4.25713 11.8647 2.9782 10.3981 1.91294 8.75914C1.84171 8.65028 1.7612 8.50513 1.77668 8.39022C1.79526 8.23903 1.90984 8.09993 1.98107 7.95478C2.10803 8.04247 2.27215 8.10295 2.35886 8.21786C3.13303 9.23388 3.80811 10.3346 4.67209 11.2659C6.623 13.3615 9.01984 14.816 11.8192 15.6173C13.5782 16.1223 15.3588 16.4398 17.1982 16.337C17.2508 16.337 17.3097 16.3491 17.353 16.331C17.5698 16.2342 17.7804 16.1314 17.9971 16.0316C17.7804 15.9378 17.5729 15.7867 17.3468 15.7564C16.0091 15.572 14.6372 15.5387 13.3335 15.2212C9.43789 14.2717 6.29475 12.1882 3.99391 8.94662C3.56967 8.35091 3.18568 7.72799 2.81717 7.096C2.73666 6.9569 2.81098 6.73313 2.81717 6.54867C2.97201 6.63637 3.20116 6.68475 3.27548 6.8178C4.05275 8.22995 4.97556 9.5272 6.14611 10.6581C7.53343 11.9977 9.1437 13.0137 10.9305 13.7425C11.8007 14.0993 12.7297 14.311 13.6401 14.559C13.764 14.5922 13.9343 14.4622 14.0829 14.4078C13.99 14.2838 13.9219 14.1023 13.798 14.0509C13.1044 13.7637 12.4045 13.4855 11.6923 13.2466C10.3483 12.796 9.17777 12.0612 8.06606 11.2176C6.35049 9.91728 5.07775 8.26322 4.08062 6.39748C3.92579 6.11021 3.83908 5.78665 3.71831 5.47822C3.77095 5.43286 3.82669 5.39052 3.87933 5.34516C4.04656 5.51148 4.27881 5.64755 4.36861 5.84713C5.33787 8.02131 6.89241 9.71468 8.84952 11.0754C9.36666 11.4353 9.92407 11.7467 10.4877 12.034C10.6239 12.1036 10.8562 11.9917 11.0451 11.9614C10.9491 11.8163 10.8871 11.6167 10.7509 11.5381C8.68849 10.3164 6.95125 8.7803 5.74044 6.71801C5.46484 6.24931 5.2171 5.76851 4.96008 5.28771C4.89815 5.16978 4.83311 5.03673 4.82382 4.9067C4.81763 4.77063 4.87647 4.63455 4.90744 4.49545C5.02821 4.58617 5.19852 4.65269 5.26355 4.77365C5.5949 5.38448 5.82405 6.06183 6.23282 6.6152C6.84596 7.44979 7.56439 8.21181 8.26115 8.9829C8.40669 9.14317 8.65443 9.21574 8.85571 9.32763C8.90526 9.28529 8.95481 9.24598 9.00435 9.20365C8.89287 9.00407 8.81855 8.76821 8.65752 8.61096C7.37549 7.35605 6.48675 5.85923 5.7838 4.24447C5.74973 4.16585 5.69709 4.07816 5.71257 4.00256C5.73735 3.86648 5.80238 3.73343 5.84883 3.60038C5.95102 3.69412 6.09037 3.7667 6.14921 3.8816C6.47126 4.5136 6.75306 5.16676 7.0937 5.78968C7.23305 6.04066 7.48698 6.23116 7.75019 6.4126C7.90193 5.91063 7.55201 5.57196 7.39717 5.18187C7.15873 4.58919 6.88931 4.00558 6.65706 3.40988C6.53629 3.10446 6.64777 2.87465 6.95434 2.69019C11.2092 0.0866228 15.7644 -0.14924 20.4373 0.993789Z" fill="#4ade80"/>
<path fill-rule="evenodd" clip-rule="evenodd" d="M28.9204 22.6751C26.5607 27.3682 20.4943 30.7972 15.3848 30.2923C15.7285 30.1501 16.0598 29.9475 16.4191 29.881C19.6799 29.2732 22.5939 27.8883 25.2415 25.9953C26.3223 25.2212 27.2234 24.2082 28.2081 23.304C28.4404 23.0894 28.685 22.8837 28.9235 22.6751H28.9204Z" fill="#4ade80"/>
<path fill-rule="evenodd" clip-rule="evenodd" d="M0.814675 19.7449C1.05931 19.8689 1.32872 19.9596 1.54859 20.1168C4.57096 22.2547 7.97112 23.1558 11.6717 23.0561C11.9349 23.05 12.1981 22.9563 12.4582 22.9049C12.4582 22.8323 12.452 22.7597 12.4489 22.6871C12.2105 22.6418 11.972 22.5873 11.7305 22.548C10.1791 22.285 8.60904 22.0975 7.07927 21.7407C5.11288 21.284 3.37873 20.3134 1.79632 19.0978C1.33492 18.744 0.904478 18.3509 0.458556 17.9699C0.381138 17.9033 0.275851 17.8368 0.247981 17.7491C0.201531 17.604 0.207724 17.4437 0.19224 17.2895C0.325398 17.3349 0.483329 17.35 0.58552 17.4286C1.20795 17.9154 1.78394 18.4597 2.43424 18.9043C3.96401 19.9475 5.59906 20.7791 7.48494 21.0361C7.80699 21.0784 8.11976 21.1873 8.43872 21.2538C8.47278 21.2599 8.51923 21.2024 8.64929 21.1147C8.18479 20.8849 7.79151 20.6127 7.35178 20.4888C5.67957 20.017 4.16839 19.2339 2.83681 18.1725C1.91709 17.4377 1.10576 16.5668 0.300624 15.705C0.0869531 15.4752 0.0559862 15.0639 -0.00594754 14.7283C-0.0245277 14.6194 0.0993398 14.4108 0.204627 14.3745C0.294431 14.3412 0.474039 14.4652 0.57623 14.5589C1.51143 15.4359 2.38779 16.3793 3.37563 17.1927C4.94256 18.487 6.73244 19.4455 8.63691 20.2045C11.5385 21.3596 14.5516 21.8888 17.6761 21.7286C19.8655 21.6167 22.0146 21.2054 24.0739 20.4585C26.2292 19.6784 28.2327 18.614 29.9917 17.1504C30.1372 17.0294 30.2518 16.8752 30.4004 16.7633C30.515 16.6787 30.6667 16.6424 30.803 16.5819C30.8494 16.718 30.9547 16.8571 30.9392 16.9871C30.772 18.3841 30.5553 19.7479 29.5086 20.8637C27.985 22.4936 26.3995 24.0418 24.5043 25.2726C22.8166 26.3642 21.0639 27.3379 19.1595 28.0062C16.1742 29.0554 13.0899 29.5362 9.91274 29.3427C9.11689 29.2943 8.46969 28.8559 7.84725 28.4144C7.85344 28.363 7.86273 28.3116 7.87202 28.2571C8.07641 28.2571 8.28388 28.2299 8.48207 28.2602C11.009 28.6835 13.4925 28.3902 15.9668 27.8701C17.7226 27.5012 19.3979 26.8964 20.9772 26.083C23.4577 24.8099 25.6098 23.1196 27.344 20.9575C27.4152 20.8668 27.375 20.6914 27.3873 20.5553C27.2542 20.5886 27.087 20.5825 26.991 20.6611C25.8545 21.5985 24.783 22.6176 23.5877 23.4733C22.6649 24.1356 21.6244 24.6708 20.5777 25.1425C19.4227 25.6626 18.2212 26.092 17.0134 26.4851C14.9665 27.1504 12.8484 27.3288 10.6993 27.2562C8.85677 27.1927 7.04521 26.9417 5.26771 26.464C4.71031 26.3158 4.29535 25.9741 4.0631 25.3058C4.27367 25.3512 4.40993 25.3663 4.53689 25.4086C7.28056 26.3279 10.0862 26.7543 12.9847 26.4277C15.2731 26.1676 17.481 25.6294 19.5125 24.5287C20.3548 24.0721 21.1723 23.5731 21.9867 23.0742C22.0982 23.0077 22.1292 22.8141 22.1973 22.6811C22.027 22.6599 21.804 22.5632 21.6925 22.6327C20.4229 23.431 19.0418 23.9995 17.6266 24.4773C16.0659 25.0065 14.4432 25.2877 12.7958 25.4207C9.98087 25.6475 7.26198 25.1849 4.6205 24.2626C3.93614 24.0237 3.27654 23.7153 2.62314 23.4098C2.14935 23.1891 2.0069 22.9472 2.0069 22.4331C2.26392 22.5269 2.50856 22.5813 2.72223 22.6932C5.82202 24.317 9.12618 24.9732 12.6192 24.5861C13.8146 24.4561 14.9975 24.1719 16.1711 23.8967C16.5273 23.812 16.8338 23.5278 17.1621 23.3342C17.1466 23.2798 17.1311 23.2254 17.1187 23.171C16.967 23.1558 16.8029 23.0954 16.6697 23.1347C13.6628 23.9783 10.6343 24.0842 7.58094 23.4068C5.21507 22.8807 3.06597 21.8949 1.11505 20.4978C0.919962 20.3587 0.811578 20.0987 0.662937 19.8961C0.709387 19.8417 0.755838 19.7902 0.802288 19.7358L0.814675 19.7449Z" fill="#4ade80"/>
</g>
<defs>
<clipPath id="clip0_77_2849">
<rect width="202" height="30" fill="white" transform="translate(0 0.340637)"/>
</clipPath>
</defs>
</svg>
