<svg width="83" height="29" viewBox="0 0 83 29" fill="none" xmlns="http://www.w3.org/2000/svg">
<path d="M17.8094 16.7677L24.6267 16.7539L24.3793 18.307L18.6753 23.7362H23.4584L23.1835 25.3993H16.1463L16.4349 23.6812L21.8915 18.4445H17.5345L17.8094 16.7677Z" fill="#D13239"/>
<path d="M10.3735 14.115C10.2223 13.9638 10.0162 13.8401 9.78252 13.7439C9.53512 13.6477 9.26023 13.579 8.98533 13.524C8.64172 13.469 8.31185 13.4415 8.07819 13.4278C7.85828 13.4141 7.72083 13.4141 7.72083 13.4141H4.73825H2.52537L0.546143 25.3994H2.40166L3.13013 20.9599L6.73122 20.9736C6.73122 20.9736 8.13317 21.0286 9.12278 20.5063C10.1124 19.984 10.3873 18.7882 10.3873 18.7882C10.3873 18.7882 10.4972 18.3484 10.5935 17.7986C10.6897 17.2076 10.7996 16.4929 10.8409 16.108C10.8683 15.9431 10.8821 15.8331 10.8821 15.8331C10.8821 15.8331 10.9096 15.7094 10.9096 15.517C10.9096 15.2558 10.8683 14.8572 10.6622 14.4724C10.566 14.3487 10.4835 14.225 10.3735 14.115ZM8.9441 16.2317C8.9441 16.2592 8.77916 17.2213 8.55925 18.3621C8.47678 18.802 8.14691 19.0356 7.76206 19.1181C7.12981 19.2555 6.44258 19.228 6.44258 19.228L3.43251 19.2143L4.09225 15.2283L6.81368 15.2421C6.81368 15.2421 6.99236 15.2421 7.25351 15.2421C7.54215 15.2421 7.927 15.2558 8.25687 15.2971C8.53176 15.3383 8.75168 15.3933 8.8204 15.4758C8.91661 15.5857 8.9441 15.7369 8.95784 15.8743C8.97159 16.053 8.9441 16.218 8.9441 16.2317Z" fill="#D13239"/>
<path d="M33.8494 13.4141H35.6362L33.6432 25.3994H31.8564L33.8494 13.4141Z" fill="#D13239"/>
<path d="M43.3743 16.7677L45.0924 16.7539L45.6972 22.8428L48.3224 16.7539H50.4391L51.0576 22.8703L53.6828 16.7539H55.4696L51.6898 25.3993H49.5869L48.9821 19.3516L46.3157 25.3993H44.254L43.3743 16.7677Z" fill="#D13239"/>
<path d="M30.5644 16.8365C30.0696 16.6715 29.2036 16.644 28.4614 16.644C27.7467 16.6578 27.4306 16.6853 27.1557 16.7403C27.1557 16.7403 25.8912 16.9189 25.1765 17.8123C24.4618 18.7057 24.2418 20.6437 24.2418 20.6437C24.2418 20.6437 23.8158 22.7879 23.9395 23.5026C24.0632 24.2173 24.2831 24.8771 25.094 25.1932C25.9049 25.5093 26.5922 25.4956 26.5922 25.4956C26.5922 25.4956 28.0354 25.6055 29.1212 25.3581C30.207 25.1107 30.7843 24.341 30.7843 24.341C30.7843 24.341 31.0454 24.0112 31.2241 23.6126C31.4028 23.214 31.4578 22.9528 31.4715 22.9116L31.5815 22.4443H29.7259C29.7259 22.4443 29.6297 23.6675 28.6264 23.7775C27.623 23.8875 27.1007 23.8462 26.8945 23.8325C26.7021 23.8187 25.63 23.8737 25.7125 22.9803C25.7125 22.9666 25.7125 22.9528 25.7125 22.9253C25.7537 21.9082 25.8774 21.6471 25.8774 21.6471L31.6914 21.6333L31.9388 20.1902C32.2549 18.5545 32.0488 17.3175 30.5644 16.8365ZM30.1658 19.984H26.1798L26.331 19.3517C26.331 19.3517 26.4685 18.8569 26.7434 18.6508C27.0183 18.4446 27.3756 18.4033 27.7055 18.3759C28.0354 18.3484 28.915 18.2797 29.6435 18.4308C29.8771 18.4721 30.1108 18.6095 30.1658 18.8157C30.317 19.2693 30.1658 19.984 30.1658 19.984Z" fill="#D13239"/>
<path d="M25.7538 22.939C25.7538 22.9527 25.7538 22.9665 25.7538 22.9802C25.74 23.0489 25.7538 22.939 25.7538 22.939Z" fill="#D13239"/>
<path d="M41.5188 16.8365C41.024 16.6715 40.1581 16.644 39.4159 16.644C38.7012 16.6578 38.3851 16.6853 38.1102 16.7403C38.1102 16.7403 36.8457 16.9189 36.1309 17.8123C35.4162 18.7057 35.1963 20.6437 35.1963 20.6437C35.1963 20.6437 34.7702 22.7879 34.8939 23.5026C35.0176 24.2173 35.2375 24.8771 36.0485 25.1932C36.8594 25.5093 37.5466 25.4956 37.5466 25.4956C37.5466 25.4956 38.9898 25.6055 40.0756 25.3581C41.1615 25.097 41.7387 24.341 41.7387 24.341C41.7387 24.341 41.9999 24.0112 42.1786 23.6126C42.3572 23.214 42.4122 22.9528 42.426 22.9116L42.5359 22.4443H40.6804C40.6804 22.4443 40.5842 23.6675 39.5808 23.7775C38.5775 23.8875 38.0552 23.8462 37.849 23.8462C37.6566 23.8325 36.5845 23.8875 36.667 22.9941C36.667 22.9803 36.667 22.9666 36.667 22.9391C36.7082 21.922 36.8319 21.6608 36.8319 21.6608L42.6459 21.6471L42.8933 20.2039C43.2094 18.5683 43.017 17.3175 41.5188 16.8365ZM41.1202 19.984H37.1343L37.2855 19.3517C37.2855 19.3517 37.4229 18.8569 37.6978 18.6508C37.9727 18.4446 38.3301 18.4033 38.6599 18.3759C38.9898 18.3484 39.8695 18.2797 40.5979 18.4308C40.8316 18.4721 41.0653 18.6095 41.1202 18.8157C41.2714 19.2693 41.1202 19.984 41.1202 19.984Z" fill="#D13239"/>
<path d="M57.5175 16.7677L58.6583 23.0902L61.8883 16.7677L63.7026 16.7815L59.0432 25.8117C59.0432 25.8117 58.2048 27.4473 57.6825 27.8596C57.1602 28.272 56.8441 28.4644 56.418 28.5056C55.9919 28.5469 55.8132 28.5743 55.4146 28.5056L54.9748 28.4232L55.2497 26.815C55.2497 26.815 55.9781 26.9525 56.4042 26.7738C56.8303 26.6089 57.1739 25.8667 57.1739 25.8667L57.3938 25.4956L55.7033 16.7402L57.5175 16.7677Z" fill="#D13239"/>
<path d="M64.3761 17.62H66.2454L66.3553 16.8916C66.3553 16.8916 66.5615 15.5721 67.0013 15.3247C67.1388 15.2422 67.3724 15.1735 67.6473 15.1185C68.1421 15.036 68.7606 15.0223 69.2692 15.036C70.0526 15.0635 70.3413 15.0773 71.1385 15.1597C71.9356 15.2559 71.7295 16.0119 71.7295 16.0119L71.5783 17.1527C71.5783 17.1527 71.5096 17.6613 71.3309 17.9774C71.166 18.266 70.7261 18.4584 70.465 18.5409C69.8465 18.7471 67.7298 19.2831 67.7298 19.2831L66.0667 19.7642C66.0667 19.7642 65.0496 20.0666 64.4723 20.6851C63.8951 21.3173 63.6751 22.032 63.5927 22.4169C63.5102 22.788 63.0704 25.3857 63.0704 25.3857H72.0456L72.348 23.5989L65.2558 23.6127L65.3795 22.8842C65.3795 22.8842 65.4619 22.1283 65.7643 21.8809C65.8605 21.7984 65.9018 21.7022 66.479 21.496C66.8227 21.3723 67.9772 21.0699 67.9772 21.0699L70.6574 20.3415C70.6574 20.3415 72.1143 19.9704 72.6916 19.1594C73.2689 18.3622 73.4888 16.8366 73.4888 16.8366C73.4888 16.8366 73.64 15.3522 73.53 14.8848C73.4063 14.4175 72.9665 13.8677 72.4442 13.6203C71.9082 13.3867 71.3584 13.2355 69.7365 13.263C68.1284 13.2905 67.3175 13.3592 66.5065 13.6616C65.6818 13.964 65.2145 14.5137 64.9122 15.2834C64.5685 16.0394 64.3761 17.62 64.3761 17.62Z" fill="#B3B2B1"/>
<path d="M81.2682 20.9598L82.5327 13.4277H80.3061L73.3651 20.8773L73.049 22.7603H79.1103L78.6705 25.413H80.5398L80.9796 22.7603H82.6977L83 20.9598H81.2682ZM79.4264 20.9598H75.5092L80.2786 15.8743L79.4264 20.9598Z" fill="#B3B2B1"/>
<path d="M14.3045 14.4036H20.0223C20.0223 14.4036 21.3005 13.3727 22.2077 12.6992C23.1148 12.0395 24.7779 10.9811 24.7779 10.9811L21.5479 9.46924C21.5479 9.46924 18.8127 11.1598 17.6582 11.957C16.5311 12.6992 14.3045 14.4036 14.3045 14.4036Z" fill="#B3B2B1"/>
<path d="M26.5784 9.92309L23.9257 8.13629C23.9257 8.13629 26.3173 6.77557 29.5198 5.49732C32.7085 4.23282 34.4129 3.69678 34.4129 3.69678L34.9489 6.22579C34.9489 6.22579 31.8839 7.25663 30.1245 8.08131C28.3103 8.86475 26.5784 9.92309 26.5784 9.92309Z" fill="#B3B2B1"/>
<path d="M36.9144 5.67599L36.4471 3.09201C36.4471 3.09201 39.7183 2.2261 42.7146 1.66257C45.7109 1.09904 49.6831 0.837891 49.6831 0.837891L48.3637 4.83757C48.3637 4.83757 44.8725 4.35651 41.5876 4.81008C39.0448 5.11247 36.9144 5.67599 36.9144 5.67599Z" fill="#B3B2B1"/>
<path d="M50.4528 5.18091L52.6657 0.741396C52.6657 0.741396 57.5038 0.645184 61.6822 1.29118C65.8605 1.93718 69.6815 2.92679 69.5991 2.96802L59.002 8.5071C59.002 8.5071 56.5279 6.94022 53.4491 5.97809C51.7173 5.46954 50.4528 5.18091 50.4528 5.18091Z" fill="#B3B2B1"/>
<path d="M60.9125 9.71644L63.2353 11.4895H82.3678C82.3678 11.4895 82.3266 10.871 81.818 9.99133C81.5019 9.44155 80.9246 8.86427 80.3199 8.25951C80.1 8.0396 79.2203 7.35237 78.5606 6.92628C76.87 5.82671 75.9216 5.40063 74.176 4.61719L60.9125 9.71644Z" fill="#B3B2B1"/>
<path d="M15.5415 16.7539C14.8268 16.7539 14.1396 17.0425 13.5623 17.3587L13.6585 16.7539H11.7617L10.2361 25.358H12.1466L12.985 20.5887C13.1637 19.6265 13.8784 18.4308 15.2941 18.4308H16.2837L16.5861 16.7539H15.5415Z" fill="#D13239"/>
</svg>
