<svg width="35" height="35" viewBox="0 0 35 35" fill="none" xmlns="http://www.w3.org/2000/svg">
<g clip-path="url(#clip0_6_1425)">
<path d="M10.2586 10.3C8.86005 11.6985 7.90764 13.4803 7.52179 15.4201C7.13593 17.3599 7.33397 19.3706 8.09084 21.1979C8.84772 23.0251 10.1294 24.5869 11.7739 25.6857C13.4184 26.7845 15.3518 27.371 17.3296 27.371C19.3075 27.371 21.2408 26.7845 22.8853 25.6857C24.5298 24.5869 25.8116 23.0251 26.5684 21.1979C27.3253 19.3706 27.5233 17.3599 27.1375 15.4201C26.7516 13.4803 25.7992 11.6985 24.4007 10.3C23.4721 9.37138 22.3697 8.63478 21.1565 8.13223C19.9432 7.62969 18.6429 7.37103 17.3296 7.37103C16.0164 7.37103 14.7161 7.62969 13.5028 8.13223C12.2895 8.63478 11.1872 9.37138 10.2586 10.3ZM22.9865 23.0279C21.8677 24.1467 20.4422 24.9086 18.8904 25.2173C17.3385 25.526 15.73 25.3676 14.2682 24.7621C12.8064 24.1566 11.5569 23.1312 10.6779 21.8156C9.79883 20.5 9.32964 18.9533 9.32964 17.371C9.32964 15.7888 9.79883 14.2421 10.6779 12.9265C11.5569 11.6109 12.8064 10.5855 14.2682 9.97999C15.73 9.37449 17.3385 9.21607 18.8904 9.52475C20.4422 9.83343 21.8677 10.5954 22.9865 11.7142C24.4868 13.2145 25.3296 15.2493 25.3296 17.371C25.3296 19.4928 24.4868 21.5276 22.9865 23.0279ZM19.451 13.8355L17.3296 15.9568L15.2083 13.8355C15.0208 13.648 14.7664 13.5426 14.5012 13.5426C14.236 13.5426 13.9816 13.648 13.7941 13.8355C13.6066 14.023 13.5012 14.2774 13.5012 14.5426C13.5012 14.8078 13.6066 15.0622 13.7941 15.2497L15.9154 17.371L13.7941 19.4923C13.6066 19.6799 13.5012 19.9342 13.5012 20.1995C13.5012 20.4647 13.6066 20.719 13.7941 20.9066C13.9816 21.0941 14.236 21.1995 14.5012 21.1995C14.7664 21.1995 15.0208 21.0941 15.2083 20.9066L17.3296 18.7852L19.451 20.9066C19.6385 21.0941 19.8928 21.1995 20.1581 21.1995C20.4233 21.1995 20.6776 21.0941 20.8652 20.9066C21.0527 20.719 21.1581 20.4647 21.1581 20.1995C21.1581 19.9342 21.0527 19.6799 20.8652 19.4923L18.7439 17.371L20.8652 15.2497C21.0527 15.0622 21.1581 14.8078 21.1581 14.5426C21.1581 14.2774 21.0527 14.023 20.8652 13.8355C20.6776 13.648 20.4233 13.5426 20.1581 13.5426C19.8928 13.5426 19.6385 13.648 19.451 13.8355Z" fill="#4ade80"/>
</g>
<defs>
<clipPath id="clip0_6_1425">
<rect width="24" height="24" fill="white" transform="translate(0.358887 17.371) rotate(-45)"/>
</clipPath>
</defs>
</svg>
