<svg width="20" height="21" viewBox="0 0 20 21" fill="none" xmlns="http://www.w3.org/2000/svg">
<path d="M17 0.938736H3C2.20435 0.938736 1.44129 1.25481 0.87868 1.81742C0.316071 2.38002 0 3.14309 0 3.93874V17.9387C0 18.7344 0.316071 19.4974 0.87868 20.0601C1.44129 20.6227 2.20435 20.9387 3 20.9387H17C17.7956 20.9387 18.5587 20.6227 19.1213 20.0601C19.6839 19.4974 20 18.7344 20 17.9387V3.93874C20 3.14309 19.6839 2.38002 19.1213 1.81742C18.5587 1.25481 17.7956 0.938736 17 0.938736ZM8 2.93874H12V6.06874L10.55 5.06874C10.3867 4.96121 10.1955 4.9039 10 4.9039C9.80449 4.9039 9.61328 4.96121 9.45 5.06874L8 6.06874V2.93874ZM18 17.9387C18 18.204 17.8946 18.4583 17.7071 18.6458C17.5196 18.8334 17.2652 18.9387 17 18.9387H3C2.73478 18.9387 2.48043 18.8334 2.29289 18.6458C2.10536 18.4583 2 18.204 2 17.9387V3.93874C2 3.67352 2.10536 3.41917 2.29289 3.23163C2.48043 3.04409 2.73478 2.93874 3 2.93874H6V7.93874C6.00048 8.11964 6.05003 8.29702 6.14336 8.45199C6.2367 8.60696 6.37032 8.73371 6.53 8.81874C6.68637 8.89903 6.86115 8.93668 7.03671 8.9279C7.21227 8.91913 7.38242 8.86423 7.53 8.76874L10 7.13874L12.45 8.76874C12.6004 8.86778 12.7748 8.92438 12.9547 8.93255C13.1346 8.94072 13.3133 8.90016 13.4721 8.81514C13.6308 8.73013 13.7637 8.60383 13.8566 8.44957C13.9495 8.29531 13.9991 8.11882 14 7.93874V2.93874H17C17.2652 2.93874 17.5196 3.04409 17.7071 3.23163C17.8946 3.41917 18 3.67352 18 3.93874V17.9387Z" fill="white"/>
</svg>
