<svg width="18" height="21" viewBox="0 0 18 21" fill="none" xmlns="http://www.w3.org/2000/svg">
<path d="M17.4898 6.06918C17.4841 6.04282 17.4841 6.01555 17.4898 5.98918C17.485 5.9661 17.485 5.94226 17.4898 5.91918V5.82918L17.4298 5.67918C17.4054 5.63825 17.3751 5.60118 17.3398 5.56918L17.2498 5.48918H17.1998L13.2598 2.99918L9.53982 0.699184C9.45376 0.630913 9.35528 0.579974 9.24982 0.549184H9.16982C9.08044 0.534265 8.98921 0.534265 8.89982 0.549184H8.79982C8.68367 0.574876 8.5723 0.61875 8.46982 0.679184L0.999824 5.32918L0.909824 5.39918L0.819824 5.47918L0.719824 5.54918L0.669824 5.60918L0.609824 5.75918V5.84918V5.90918C0.600111 5.9755 0.600111 6.04287 0.609824 6.10918V14.8392C0.609484 15.0091 0.65246 15.1764 0.734695 15.3251C0.81693 15.4738 0.935711 15.5991 1.07982 15.6892L8.57982 20.3292L8.72982 20.3892H8.80982C8.979 20.4428 9.16064 20.4428 9.32982 20.3892H9.40982L9.55982 20.3292L16.9998 15.7592C17.1439 15.6691 17.2627 15.5438 17.345 15.3951C17.4272 15.2464 17.4702 15.0791 17.4698 14.9092V6.17918C17.4698 6.17918 17.4898 6.10918 17.4898 6.06918ZM8.99982 2.71918L10.7798 3.81918L5.18982 7.27918L3.39982 6.17918L8.99982 2.71918ZM7.99982 17.7192L2.49982 14.3592V7.96918L7.99982 11.3692V17.7192ZM8.99982 9.60918L7.08982 8.45918L12.6798 4.98918L14.5998 6.17918L8.99982 9.60918ZM15.4998 14.3292L9.99982 17.7492V11.3692L15.4998 7.96918V14.3292Z" fill="#4ade80"/>
</svg>
