<svg width="181" height="24" viewBox="0 0 181 24" fill="none" xmlns="http://www.w3.org/2000/svg">
<path d="M102.253 0.499023V2.51443C100.733 1.13374 98.7277 0.41306 96.6771 0.510908C94.6265 0.608755 92.6987 1.51711 91.3178 3.03619C89.937 4.55586 89.2163 6.56172 89.3141 8.61269C89.4119 10.6637 90.3204 12.5918 91.8396 13.9731C93.2644 15.268 95.1207 15.9855 97.046 15.9855C98.9714 15.9855 100.828 15.268 102.253 13.9731V15.9885H105.025V0.499023H102.253ZM97.0483 13.2633C95.7167 13.2633 94.4397 12.7343 93.4982 11.7928C92.5566 10.8512 92.0277 9.5742 92.0277 8.24266C92.0277 6.91111 92.5566 5.6341 93.4982 4.69256C94.4397 3.75101 95.7167 3.22206 97.0483 3.22206C98.3798 3.22206 99.6568 3.75101 100.598 4.69256C101.54 5.6341 102.069 6.91111 102.069 8.24266C102.067 9.57366 101.538 10.8496 100.596 11.7908C99.6553 12.732 98.3793 13.2615 97.0483 13.2633Z" fill="#B0B6BB"/>
<path d="M140.939 0.499023V2.51443C139.42 1.13374 137.414 0.41306 135.364 0.510908C133.313 0.608755 131.386 1.51711 130.005 3.03619C128.624 4.55586 127.903 6.56172 128.001 8.61269C128.099 10.6637 129.007 12.5918 130.526 13.9731C131.951 15.268 133.807 15.9855 135.733 15.9855C137.658 15.9855 139.514 15.268 140.939 13.9731V15.9885H143.712V0.499023H140.939ZM135.733 13.2633C134.401 13.2633 133.124 12.7343 132.183 11.7928C131.241 10.8512 130.712 9.5742 130.712 8.24266C130.712 6.91111 131.241 5.6341 132.183 4.69256C133.124 3.75101 134.401 3.22206 135.733 3.22206C137.064 3.22206 138.341 3.7507 139.282 4.69176C140.224 5.63282 140.753 6.90926 140.753 8.24042C140.754 8.89973 140.624 9.55265 140.372 10.1619C140.12 10.7711 139.75 11.3248 139.284 11.7912C138.818 12.2576 138.265 12.6276 137.656 12.8802C137.047 13.1328 136.394 13.263 135.735 13.2633H135.733Z" fill="#B0B6BB"/>
<path d="M172.62 3.22068C173.95 3.21889 175.227 3.74559 176.169 4.68498C177.112 5.62436 177.642 6.89952 177.645 8.23008C177.645 9.56144 177.117 10.8386 176.177 11.7808C175.236 12.7231 173.96 13.2534 172.629 13.2552C171.298 13.2563 170.022 12.7295 169.08 11.7902C168.137 10.8509 167.606 9.57614 167.603 8.24576C167.605 6.91535 168.133 5.6397 169.074 4.69854C170.014 3.75738 171.289 3.22753 172.62 3.22515V3.22068ZM172.62 0.499882C171.603 0.500175 170.596 0.700869 169.657 1.09049C168.717 1.48011 167.864 2.05102 167.145 2.77058C166.427 3.49015 165.857 4.34427 165.469 5.28411C165.081 6.22396 164.882 7.23111 164.883 8.24799C164.883 9.2649 165.084 10.2717 165.474 11.211C165.864 12.1503 166.434 13.0036 167.154 13.7223C167.873 14.4409 168.727 15.0108 169.667 15.3994C170.607 15.788 171.614 15.9877 172.631 15.9872C173.648 15.9863 174.656 15.7849 175.595 15.3945C176.535 15.0041 177.388 14.4324 178.107 13.712C178.825 12.9916 179.395 12.1366 179.783 11.196C180.171 10.2554 180.369 9.24755 180.368 8.23008C180.367 6.1783 179.552 4.21073 178.101 2.75991C176.65 1.30908 174.683 0.493758 172.631 0.493164L172.62 0.499882Z" fill="#B0B6BB"/>
<path d="M85.668 0.500488H82.8935H80.1212H77.3489H74.5743H71.802H70.4159V3.5975H71.802H74.5743H77.3489V6.69226V9.78927V12.884V15.981H80.1212V12.884V9.78927V6.69226V3.5975H82.8935H85.668H87.0542V0.500488H85.668Z" fill="#B0B6BB"/>
<path d="M162.294 0.499024H154.552C152.501 0.498429 150.533 1.31236 149.082 2.76195C147.63 4.21154 146.813 6.17817 146.811 8.22969C146.811 10.2828 147.626 12.2518 149.077 13.704C150.529 15.1562 152.497 15.9726 154.55 15.9738C156.376 15.9755 158.143 15.3331 159.542 14.1598L159.528 15.9648H159.542C159.541 17.2874 159.015 18.5556 158.08 19.4907C157.145 20.4259 155.877 20.9515 154.555 20.9521C153.232 20.9515 151.964 20.4259 151.029 19.4907C150.094 18.5556 149.568 17.2874 149.568 15.9648H146.851C146.85 16.978 147.049 17.9815 147.436 18.9179C147.823 19.8543 148.39 20.7052 149.106 21.422C149.823 22.1387 150.673 22.7073 151.609 23.0951C152.545 23.4829 153.548 23.6824 154.561 23.6821C156.605 23.6815 158.564 22.8694 160.009 21.4244C161.454 19.9793 162.266 18.0196 162.267 15.976H162.294V8.25208C162.301 6.40113 161.642 4.60933 160.437 3.20431H162.303L162.294 0.499024ZM154.552 13.264C153.221 13.264 151.944 12.735 151.002 11.7934C150.061 10.8518 149.532 9.57475 149.532 8.24312C149.532 6.9115 150.061 5.63441 151.002 4.69281C151.944 3.75121 153.221 3.22223 154.552 3.22223C155.884 3.22223 157.161 3.75121 158.102 4.69281C159.044 5.63441 159.573 6.9115 159.573 8.24312C159.571 9.5742 159.042 10.8503 158.1 11.7915C157.159 12.7327 155.883 13.2622 154.552 13.264Z" fill="#B0B6BB"/>
<path d="M124.413 0.499023H121.665V1.02306C121.534 2.2977 120.935 3.47835 119.983 4.3367C119.032 5.19504 117.796 5.6701 116.515 5.67C115.275 5.66916 114.076 5.22317 113.136 4.41314C112.197 3.60311 111.579 2.48281 111.396 1.25596V0.499023H108.63V15.9806H111.396V6.50085C112.828 7.72411 114.651 8.39413 116.534 8.38961C118.417 8.38509 120.237 7.70633 121.663 6.47622V15.9806H124.438V0.499023H124.413Z" fill="#B0B6BB"/>
<path d="M19.1571 6.47552V0.60191H21.1604C21.543 0.60191 21.8829 0.668359 22.1799 0.801257C22.477 0.934154 22.711 1.13231 22.8821 1.39574C23.0532 1.65679 23.1388 1.9831 23.1388 2.37467C23.1388 2.76387 23.0532 3.09612 22.8821 3.37141C22.711 3.64669 22.477 3.85791 22.1799 4.00504C21.8829 4.14981 21.543 4.22219 21.1604 4.22219H20.3121V6.47552H19.1571ZM20.3121 3.30021H20.804C21.006 3.30021 21.1913 3.27055 21.3601 3.21122C21.5312 3.15189 21.669 3.05696 21.7736 2.92644C21.8781 2.79591 21.9304 2.62386 21.9304 2.41027C21.9304 2.19431 21.8781 2.02226 21.7736 1.8941C21.669 1.76358 21.5312 1.66984 21.3601 1.61288C21.1913 1.55355 21.006 1.52389 20.804 1.52389H20.3121V3.30021Z" fill="#B0B6BB"/>
<path d="M24.2047 6.47552V0.60191H26.2079C26.6096 0.60191 26.9577 0.673105 27.2524 0.815496C27.5494 0.955513 27.7787 1.15842 27.9403 1.42422C28.1043 1.68764 28.1863 2.00564 28.1863 2.37823C28.1863 2.67251 28.134 2.9383 28.0294 3.17562C27.9249 3.41056 27.7752 3.60872 27.5803 3.7701C27.3854 3.93147 27.149 4.05132 26.871 4.12963L28.7958 6.47552H27.3308L25.634 4.26135H25.3596V6.47552H24.2047ZM25.3596 3.30021H25.8515C26.0915 3.30021 26.2947 3.2658 26.461 3.19698C26.6274 3.12815 26.7545 3.02729 26.8424 2.8944C26.9327 2.75913 26.9779 2.59775 26.9779 2.41027C26.9779 2.12549 26.8793 1.90716 26.682 1.75527C26.4872 1.60102 26.2103 1.52389 25.8515 1.52389H25.3596V3.30021Z" fill="#B0B6BB"/>
<path d="M32.1243 6.58943C31.7132 6.58943 31.3282 6.51112 30.9694 6.35449C30.6106 6.19786 30.2957 5.98071 30.0248 5.70305C29.7539 5.42302 29.5412 5.09908 29.3867 4.73124C29.2346 4.36102 29.1586 3.9647 29.1586 3.54227C29.1586 3.11985 29.2346 2.72471 29.3867 2.35687C29.5412 1.98666 29.7539 1.66272 30.0248 1.38506C30.2957 1.10502 30.6106 0.886691 30.9694 0.730061C31.3282 0.573432 31.7132 0.495117 32.1243 0.495117C32.5354 0.495117 32.9204 0.573432 33.2792 0.730061C33.6381 0.886691 33.9529 1.10502 34.2239 1.38506C34.4948 1.66272 34.7063 1.98666 34.8583 2.35687C35.0128 2.72471 35.09 3.11985 35.09 3.54227C35.09 3.9647 35.0128 4.36102 34.8583 4.73124C34.7063 5.09908 34.4948 5.42302 34.2239 5.70305C33.9529 5.98071 33.6381 6.19786 33.2792 6.35449C32.9204 6.51112 32.5354 6.58943 32.1243 6.58943ZM32.1208 5.47879C32.3727 5.47879 32.6032 5.43132 32.8123 5.33639C33.0214 5.24147 33.2032 5.10738 33.3577 4.93414C33.5121 4.7609 33.6321 4.55681 33.7177 4.32186C33.8032 4.08454 33.846 3.82468 33.846 3.54227C33.846 3.25987 33.8032 3.00119 33.7177 2.76625C33.6321 2.52893 33.5121 2.32365 33.3577 2.15041C33.2032 1.97716 33.0214 1.84308 32.8123 1.74815C32.6032 1.65323 32.3727 1.60576 32.1208 1.60576C31.8736 1.60576 31.6443 1.65323 31.4328 1.74815C31.2237 1.84308 31.0419 1.97716 30.8874 2.15041C30.7329 2.32365 30.6129 2.52893 30.5274 2.76625C30.4442 3.00119 30.4026 3.25987 30.4026 3.54227C30.4026 3.82468 30.4442 4.08454 30.5274 4.32186C30.6129 4.55681 30.7329 4.7609 30.8874 4.93414C31.0419 5.10738 31.2237 5.24147 31.4328 5.33639C31.6443 5.43132 31.8736 5.47879 32.1208 5.47879Z" fill="#B0B6BB"/>
<path d="M37.0044 6.58943C36.4578 6.58943 35.9873 6.40432 35.5928 6.03411L35.9778 5.08009C36.2701 5.35063 36.5505 5.4859 36.819 5.4859C37.0662 5.4859 37.2587 5.40047 37.3965 5.2296C37.5367 5.05873 37.6068 4.82379 37.6068 4.52477V0.60191H38.7617V4.82379C38.7617 5.38386 38.6061 5.81815 38.2948 6.12666C37.9835 6.43517 37.5533 6.58943 37.0044 6.58943Z" fill="#B0B6BB"/>
<path d="M40.301 6.47552V0.60191H43.5733V1.61288H41.4559V3.02611H43.4877V4.03708H41.4559V5.46455H43.5733V6.47552H40.301Z" fill="#B0B6BB"/>
<path d="M44.9864 6.47552V0.60191H46.1414V3.05103L48.2979 0.60191H49.7095L47.2 3.42836L50.066 6.47552H48.469L46.1414 3.99436V6.47552H44.9864Z" fill="#B0B6BB"/>
<path d="M51.3413 6.47552V1.62H49.8513V0.60191H53.9862V1.62H52.4927V6.47552H51.3413Z" fill="#B0B6BB"/>
<path d="M0.484863 15.9682V10.0946H1.63979V15.9682H0.484863Z" fill="#B0B6BB"/>
<path d="M5.60906 15.9682L3.91588 10.0946H5.19913L6.31128 14.3877L7.56602 10.0946H8.43221L9.68338 14.3877L10.7955 10.0946H12.0823L10.3856 15.9682H9.10235L7.99733 12.3195L6.89588 15.9682H5.60906Z" fill="#B0B6BB"/>
<path d="M13.0305 15.9682V10.0946H14.6453C15.0635 10.0946 15.4521 10.1694 15.8109 10.3189C16.1697 10.4684 16.4834 10.6772 16.7519 10.9454C17.0229 11.2136 17.2332 11.5256 17.3829 11.8816C17.535 12.2376 17.611 12.622 17.611 13.035C17.611 13.4503 17.5362 13.8359 17.3864 14.1919C17.2367 14.5455 17.0264 14.8564 16.7555 15.1246C16.487 15.3904 16.1721 15.598 15.8109 15.7475C15.4521 15.8947 15.0635 15.9682 14.6453 15.9682H13.0305ZM14.1854 14.9359H14.517C14.7831 14.9359 15.0291 14.8884 15.2548 14.7935C15.4806 14.6986 15.6766 14.5657 15.843 14.3948C16.0093 14.2239 16.1388 14.0234 16.2315 13.7932C16.3242 13.5606 16.3705 13.3067 16.3705 13.0314C16.3705 12.7585 16.3242 12.5069 16.2315 12.2767C16.1388 12.0442 16.0093 11.8425 15.843 11.6716C15.6766 11.4983 15.4806 11.3643 15.2548 11.2693C15.0291 11.1744 14.7831 11.1269 14.517 11.1269H14.1854V14.9359Z" fill="#B0B6BB"/>
<path d="M18.7742 15.9682V10.0946H20.7775C21.1791 10.0946 21.5273 10.1658 21.8219 10.3082C22.119 10.4482 22.3483 10.6511 22.5099 10.9169C22.6739 11.1803 22.7559 11.4983 22.7559 11.8709C22.7559 12.1652 22.7036 12.431 22.599 12.6683C22.4945 12.9033 22.3448 13.1014 22.1499 13.2628C21.955 13.4242 21.7186 13.544 21.4405 13.6223L23.3654 15.9682H21.9004L20.2036 13.754H19.9292V15.9682H18.7742ZM19.9292 12.7929H20.4211C20.6611 12.7929 20.8643 12.7585 21.0306 12.6897C21.197 12.6209 21.3241 12.52 21.412 12.3871C21.5023 12.2518 21.5475 12.0905 21.5475 11.903C21.5475 11.6182 21.4489 11.3999 21.2516 11.248C21.0568 11.0937 20.7799 11.0166 20.4211 11.0166H19.9292V12.7929Z" fill="#B0B6BB"/>
<path d="M26.6939 16.0821C26.2828 16.0821 25.8978 16.0038 25.539 15.8472C25.1801 15.6906 24.8653 15.4734 24.5944 15.1958C24.3235 14.9157 24.1108 14.5918 23.9563 14.2239C23.8042 13.8537 23.7282 13.4574 23.7282 13.035C23.7282 12.6125 23.8042 12.2174 23.9563 11.8496C24.1108 11.4794 24.3235 11.1554 24.5944 10.8778C24.8653 10.5977 25.1801 10.3794 25.539 10.2228C25.8978 10.0661 26.2828 9.98782 26.6939 9.98782C27.105 9.98782 27.49 10.0661 27.8488 10.2228C28.2077 10.3794 28.5225 10.5977 28.7934 10.8778C29.0643 11.1554 29.2758 11.4794 29.4279 11.8496C29.5824 12.2174 29.6596 12.6125 29.6596 13.035C29.6596 13.4574 29.5824 13.8537 29.4279 14.2239C29.2758 14.5918 29.0643 14.9157 28.7934 15.1958C28.5225 15.4734 28.2077 15.6906 27.8488 15.8472C27.49 16.0038 27.105 16.0821 26.6939 16.0821ZM26.6903 14.9715C26.9422 14.9715 27.1727 14.924 27.3819 14.8291C27.591 14.7342 27.7728 14.6001 27.9272 14.4268C28.0817 14.2536 28.2017 14.0495 28.2873 13.8146C28.3728 13.5772 28.4156 13.3174 28.4156 13.035C28.4156 12.7526 28.3728 12.4939 28.2873 12.2589C28.2017 12.0216 28.0817 11.8163 27.9272 11.6431C27.7728 11.4699 27.591 11.3358 27.3819 11.2409C27.1727 11.1459 26.9422 11.0985 26.6903 11.0985C26.4432 11.0985 26.2139 11.1459 26.0024 11.2409C25.7932 11.3358 25.6115 11.4699 25.457 11.6431C25.3025 11.8163 25.1825 12.0216 25.097 12.2589C25.0138 12.4939 24.9722 12.7526 24.9722 13.035C24.9722 13.3174 25.0138 13.5772 25.097 13.8146C25.1825 14.0495 25.3025 14.2536 25.457 14.4268C25.6115 14.6001 25.7932 14.7342 26.0024 14.8291C26.2139 14.924 26.4432 14.9715 26.6903 14.9715Z" fill="#B0B6BB"/>
<path d="M30.1731 15.9682L33.3028 11.1091H30.5866V10.0946H35.3275L32.1978 14.9537H35.1386V15.9682H30.1731ZM32.7895 9.11924C32.6683 9.11924 32.5578 9.09076 32.458 9.0338C32.3606 8.97447 32.2821 8.89616 32.2227 8.79886C32.1657 8.69918 32.1372 8.59002 32.1372 8.47136C32.1372 8.35033 32.1657 8.24116 32.2227 8.14386C32.2821 8.04656 32.3606 7.96943 32.458 7.91248C32.5578 7.85315 32.6683 7.82348 32.7895 7.82348C32.9083 7.82348 33.0164 7.85315 33.1139 7.91248C33.2113 7.96943 33.2885 8.04656 33.3456 8.14386C33.405 8.24116 33.4347 8.35033 33.4347 8.47136C33.4347 8.59002 33.405 8.69918 33.3456 8.79886C33.2885 8.89616 33.2113 8.97447 33.1139 9.0338C33.0164 9.09076 32.9083 9.11924 32.7895 9.11924Z" fill="#B0B6BB"/>
<path d="M36.3395 15.9682V10.0946H39.6118V11.1056H37.4945V12.5188H39.5263V13.5298H37.4945V14.9572H39.6118V15.9682H36.3395Z" fill="#B0B6BB"/>
<path d="M41.025 15.9682V10.0946H42.1799L44.7144 14.0459V10.0946H45.8693V15.9682H44.7144L42.1799 12.0169V15.9682H41.025Z" fill="#B0B6BB"/>
<path d="M47.4719 15.9682V10.0946H48.6268V15.9682H47.4719Z" fill="#B0B6BB"/>
<path d="M50.2358 15.9682V10.0946H53.5081V11.1056H51.3908V12.5188H53.4226V13.5298H51.3908V14.9572H53.5081V15.9682H50.2358Z" fill="#B0B6BB"/>
</svg>
