<svg width="35" height="35" viewBox="0 0 35 35" fill="none" xmlns="http://www.w3.org/2000/svg">
<path d="M18.89 12.5174C18.7553 12.3885 18.5964 12.2874 18.4225 12.2199C18.0776 12.0782 17.6908 12.0782 17.3459 12.2199C17.172 12.2874 17.0131 12.3885 16.8784 12.5174L12.6284 16.7674C12.3616 17.0342 12.2117 17.396 12.2117 17.7733C12.2117 18.1505 12.3616 18.5123 12.6284 18.7791C12.8951 19.0459 13.2569 19.1957 13.6342 19.1957C14.0115 19.1957 14.3733 19.0459 14.64 18.7791L16.4675 16.9374L16.4675 22.0233C16.4675 22.399 16.6168 22.7593 16.8825 23.025C17.1481 23.2907 17.5085 23.4399 17.8842 23.4399C18.2599 23.4399 18.6203 23.2907 18.8859 23.025C19.1516 22.7593 19.3009 22.399 19.3009 22.0233L19.3009 16.9374L21.1284 18.7791C21.2601 18.9119 21.4168 19.0173 21.5894 19.0892C21.762 19.1611 21.9472 19.1981 22.1342 19.1981C22.3212 19.1981 22.5064 19.1611 22.679 19.0892C22.8517 19.0173 23.0083 18.9119 23.14 18.7791C23.2728 18.6474 23.3782 18.4907 23.4501 18.3181C23.5221 18.1454 23.5591 17.9603 23.5591 17.7733C23.5591 17.5862 23.5221 17.4011 23.4501 17.2284C23.3782 17.0558 23.2728 16.8991 23.14 16.7674L18.89 12.5174ZM17.8842 3.6066C15.0823 3.6066 12.3433 4.43746 10.0136 5.99412C7.68393 7.55077 5.86815 9.7633 4.79591 12.3519C3.72367 14.9405 3.44312 17.789 3.98974 20.537C4.53637 23.2851 5.88561 25.8094 7.86686 27.7906C9.8481 29.7719 12.3724 31.1211 15.1204 31.6677C17.8685 32.2143 20.7169 31.9338 23.3056 30.8616C25.8942 29.7893 28.1067 27.9735 29.6634 25.6438C31.22 23.3141 32.0509 20.5752 32.0509 17.7733C32.0509 14.016 30.5583 10.4127 27.9015 7.75592C25.2448 5.09916 21.6414 3.6066 17.8842 3.6066V3.6066ZM17.8842 29.1066C15.6427 29.1066 13.4515 28.4419 11.5877 27.1966C9.72398 25.9513 8.27136 24.1812 7.41357 22.1103C6.55577 20.0395 6.33134 17.7607 6.76864 15.5622C7.20593 13.3638 8.28533 11.3444 9.87032 9.75939C11.4553 8.17439 13.4747 7.095 15.6732 6.6577C17.8716 6.2204 20.1504 6.44484 22.2213 7.30263C24.2922 8.16042 26.0622 9.61305 27.3075 11.4768C28.5528 13.3406 29.2175 15.5317 29.2175 17.7733C29.2175 20.7791 28.0235 23.6617 25.8981 25.7871C23.7727 27.9126 20.89 29.1066 17.8842 29.1066V29.1066Z" fill="white"/>
</svg>
