<svg width="28" height="33" viewBox="0 0 28 33" fill="none" xmlns="http://www.w3.org/2000/svg">
<g clip-path="url(#clip0_77_3327)">
<path fill-rule="evenodd" clip-rule="evenodd" d="M1.20427 10.409L1.31875 23.403L4.23813 27.0093L12.9966 31.646L23.7583 26.3796L25.9908 21.056L25.7618 3.82569L17.6333 3.59671L9.16136 4.97054L1.43358 9.43546L1.20427 10.409Z" fill="#301506"/>
<path d="M13.7441 1.01881C8.64253 1.01881 4.1925 2.0065 0.516937 3.95426V19.526C0.516937 22.8026 1.74806 25.5425 4.07659 27.4512C6.23862 29.2248 12.925 32.1474 13.7444 32.5024C14.5214 32.1642 21.2871 29.1964 23.4148 27.4512C25.742 25.5435 26.9734 22.8028 26.9734 19.526V3.95426C23.2973 2.00624 18.8473 1.01855 13.7437 1.01855L13.7441 1.01881ZM21.2982 4.03392C22.8195 4.05381 24.3133 4.1478 25.7573 4.28199V19.5259C25.7573 22.4553 24.6944 24.8216 22.6434 26.5109C20.8111 28.0198 15.2861 30.4953 13.7444 31.1748C12.182 30.4861 6.64314 27.9794 4.84382 26.5116C2.80499 24.8511 1.7318 22.4286 1.7318 19.5265V10.6192C7.59082 5.24604 14.7055 3.94805 21.2977 4.03427L21.2982 4.03392ZM14.089 11.1321C12.8338 11.1321 11.821 11.4127 10.9872 11.9509V26.949H13.2894V22.1036C13.5191 22.1713 13.8526 22.2347 14.325 22.2347C16.8788 22.2347 18.3466 19.9326 18.3466 16.5713C18.3466 13.2167 16.8352 11.1321 14.0891 11.1321L14.089 11.1321ZM21.9554 11.1321C20.4414 11.176 18.858 12.2727 18.8677 14.1321C18.8715 15.3563 19.2109 16.2719 21.1083 17.3852C22.1209 17.9796 22.5289 18.3712 22.5463 19.0934C22.5657 19.8963 22.011 20.3804 21.1668 20.3771C20.4324 20.3713 19.5544 19.9637 18.9665 19.4403V21.5589C19.6874 21.9888 20.5869 22.2729 21.4956 22.2729C23.7699 22.2729 24.7854 20.6663 24.8293 19.1942C24.8726 17.8524 24.5018 16.8372 22.5786 15.7071C21.7202 15.2037 21.0423 14.8729 21.065 14.0352C21.0875 13.2175 21.7664 12.9302 22.4182 12.936C23.2224 12.9431 24.0002 13.3885 24.4804 13.8809V11.8802C24.0758 11.5685 23.219 11.0933 21.9554 11.132L21.9554 11.1321ZM2.90742 11.365V18.5995C2.90742 21.0384 4.06111 22.2731 6.33801 22.2731C7.7469 22.2731 8.92691 21.947 9.80592 21.3493V11.3651H7.50878V20.0395C7.25837 20.2112 6.88694 20.3208 6.41968 20.3208C5.36513 20.3208 5.20756 19.3538 5.20756 18.7013V11.3652H2.90737L2.90742 11.365ZM14.1045 12.9855C15.4398 12.9855 15.9933 14.0516 15.9933 16.6299C15.9933 19.1456 15.3603 20.361 14.0359 20.361C13.7242 20.361 13.4533 20.2838 13.2887 20.2219V13.1521C13.4752 13.0592 13.7921 12.9857 14.1045 12.9857V12.9855Z" fill="#FAB80A"/>
</g>
<defs>
<clipPath id="clip0_77_3327">
<rect width="26.9727" height="32" fill="white" transform="translate(0.284607 0.736328)"/>
</clipPath>
</defs>
</svg>
