<svg width="24" height="16" viewBox="0 0 24 16" fill="none" xmlns="http://www.w3.org/2000/svg">
<path d="M23 5.7051C23.0495 4.27375 22.7365 2.85312 22.09 1.5751C21.6514 1.0507 21.0427 0.696811 20.37 0.575101C17.5875 0.322626 14.7936 0.219145 12 0.265101C9.21667 0.21706 6.43274 0.317201 3.66003 0.565101C3.11185 0.664818 2.60454 0.921943 2.20003 1.3051C1.30003 2.1351 1.20003 3.5551 1.10003 4.7551C0.954939 6.91267 0.954939 9.07754 1.10003 11.2351C1.12896 11.9105 1.22952 12.5809 1.40003 13.2351C1.5206 13.7402 1.76455 14.2074 2.11003 14.5951C2.51729 14.9986 3.03641 15.2703 3.60003 15.3751C5.75594 15.6412 7.92824 15.7515 10.1 15.7051C13.6 15.7551 16.67 15.7051 20.3 15.4251C20.8775 15.3267 21.4112 15.0546 21.83 14.6451C22.11 14.365 22.3191 14.0222 22.44 13.6451C22.7977 12.5477 22.9733 11.3992 22.96 10.2451C23 9.6851 23 6.3051 23 5.7051ZM9.74003 10.8451V4.6551L15.66 7.7651C14 8.6851 11.81 9.7251 9.74003 10.8451Z" fill="#4ade80"/>
</svg>
